<?xml version="1.0" encoding="UTF-8"?>
<svg version="1.1" xmlns="http://www.w3.org/2000/svg" width="1024" height="1024">
<path d="M0 0 C337.92 0 675.84 0 1024 0 C1024 337.92 1024 675.84 1024 1024 C686.08 1024 348.16 1024 0 1024 C0 686.08 0 348.16 0 0 Z " fill="#134C2B" transform="translate(0,0)"/>
<path d="M0 0 C3.48579191 1.98927391 6.19581306 4.39162612 8 8 C8.09039906 9.6648064 8.11755257 11.33323421 8.11352539 13.00048828 C8.11340454 14.05598877 8.11328369 15.11148926 8.11315918 16.19897461 C8.10804321 17.31151611 8.10292725 18.42405762 8.09765625 19.5703125 C8.09664917 20.5905249 8.09564209 21.6107373 8.09460449 22.66186523 C8.08936163 26.48292155 8.07540043 30.30396187 8.0625 34.125 C8.041875 42.66375 8.02125 51.2025 8 60 C27.8 60 47.6 60 68 60 C67.84190436 43.15672358 67.84190436 43.15672358 67.63964844 26.31396484 C67.6279617 24.19629727 67.61776984 22.07862069 67.609375 19.9609375 C67.58891113 18.86885986 67.56844727 17.77678223 67.54736328 16.65161133 C67.54452334 10.45344778 67.75561186 6.66499455 72 2 C76.4642687 -0.97617913 80.76724742 -0.74006072 86 0 C89.93783025 1.94566022 92.37717044 4.95329829 94 9 C94.24050903 11.41717529 94.24050903 11.41717529 94.22705078 14.13574219 C94.22689972 15.15649841 94.22674866 16.17725464 94.22659302 17.22894287 C94.21627045 18.32386047 94.20594788 19.41877808 94.1953125 20.546875 C94.19106766 22.23638275 94.19106766 22.23638275 94.18673706 23.96002197 C94.17554374 27.55678946 94.15044037 31.15330779 94.125 34.75 C94.11496912 37.18879849 94.10584346 39.62760088 94.09765625 42.06640625 C94.07560716 48.04435582 94.04213784 54.02216011 94 60 C95.31355469 59.94199219 96.62710937 59.88398438 97.98046875 59.82421875 C99.71611023 59.77730952 101.45179023 59.73181061 103.1875 59.6875 C104.05181641 59.64560547 104.91613281 59.60371094 105.80664062 59.56054688 C110.24239953 59.47557065 112.32694625 59.50290801 115.98828125 62.20703125 C119.77148877 67.45944558 120.29802904 71.92086939 120.29052734 78.28417969 C120.30060318 79.51715538 120.30060318 79.51715538 120.31088257 80.77503967 C120.32986234 83.49071329 120.33378847 86.20613917 120.3359375 88.921875 C120.34237152 90.82456562 120.34910033 92.72725526 120.35610962 94.62994385 C120.3680867 98.62457566 120.37179061 102.61912103 120.37060547 106.61376953 C120.37040365 111.68696498 120.39756067 116.75959155 120.43214989 121.83265305 C120.45460997 125.7691085 120.45843702 129.70543197 120.45738602 133.64194489 C120.45971895 135.50910631 120.4684093 137.37627269 120.48405075 139.24337006 C120.66469658 163.06076614 115.29554254 184.05261922 98.40136719 201.59082031 C87.13333893 212.92166684 72.60948214 220.53122619 57 224 C55.68 224 54.36 224 53 224 C53.75700514 240.65411301 57.84746731 252.86052505 69.47412109 265.11254883 C90.9777678 287.91475968 101.22449453 312.50025127 101.25 343.875 C101.25067474 344.6174295 101.25134949 345.35985901 101.25204468 346.12478638 C101.23622417 357.06592608 100.74390564 367.35764531 98 378 C97.6674389 379.43477312 97.33543057 380.86967446 97.00390625 382.3046875 C91.55333118 404.71233603 80.34078973 425.07993879 66 443 C65.38584229 443.76860352 65.38584229 443.76860352 64.75927734 444.55273438 C54.48306475 457.3126593 43.04345328 469.05458691 30 479 C29.44231934 479.42877441 28.88463867 479.85754883 28.31005859 480.29931641 C-18.76929172 516.33425763 -80.46576652 534.56898815 -139.61938477 526.97802734 C-141.7497872 526.67188245 -143.87447919 526.33827032 -146 526 C-146.77585449 525.8870459 -147.55170898 525.7740918 -148.35107422 525.65771484 C-176.51864417 521.47707214 -206.07069683 511.2136897 -229 494 C-230.04929687 493.24332031 -231.09859375 492.48664063 -232.1796875 491.70703125 C-241.20518184 485.06466182 -241.20518184 485.06466182 -244.31054688 480.90501404 C-247.7929616 476.33948589 -250.92982981 472.77273758 -256.65795898 471.33101273 C-264.7367985 470.2748745 -272.87472793 470.60420399 -281 470.78515625 C-283.64471567 470.79781628 -286.28890395 470.80524861 -288.93359375 470.80528259 C-295.16721728 470.8153291 -301.39872119 470.88190393 -307.63163757 470.97309822 C-318.77889524 471.13506707 -329.92669782 471.21426873 -341.07502747 471.25143141 C-345.60172274 471.26932702 -350.12631507 471.33437108 -354.65234375 471.41114807 C-357.03905395 471.43146046 -359.42577276 471.45079347 -361.8125 471.46899414 C-362.87259277 471.49647232 -363.93268555 471.5239505 -365.02490234 471.55226135 C-375.91797841 471.57444419 -385.16452061 467.81570246 -393.02734375 460.23828125 C-402.58326125 449.39562635 -403.29861593 438.47173609 -403.26742554 424.64775085 C-403.27116488 423.07713488 -403.27576753 421.50652076 -403.28115618 419.93590957 C-403.29336637 415.63120004 -403.29312806 411.32656835 -403.29076743 407.02184546 C-403.29035877 402.37482169 -403.30140309 397.72782272 -403.31088257 393.08081055 C-403.32748231 383.98088406 -403.33299164 374.88098349 -403.33410732 365.78104313 C-403.33505822 358.38334541 -403.33917056 350.98565622 -403.34550858 343.5879612 C-403.36311762 322.60734602 -403.37234789 301.62675129 -403.37084763 280.64612868 C-403.37076772 279.51549655 -403.3706878 278.38486441 -403.37060547 277.2199707 C-403.37052371 276.0879559 -403.37044195 274.9559411 -403.37035771 273.78962282 C-403.36954474 255.44229202 -403.38868597 237.0950433 -403.4168822 218.74773624 C-403.44561528 199.9022072 -403.45942229 181.05671818 -403.45769465 162.21116668 C-403.45703093 151.63346089 -403.46251544 141.05584118 -403.48405075 130.47815514 C-403.50226802 121.47263825 -403.50660531 112.46724646 -403.4930319 103.46171912 C-403.48650525 98.86893386 -403.48637419 94.27638856 -403.5037384 89.68362617 C-403.51948733 85.47474451 -403.51658705 81.26629272 -403.49917014 77.05742142 C-403.49610426 75.53930337 -403.49971706 74.02115309 -403.51089029 72.50307306 C-403.59740934 59.90831399 -401.62485925 49.97900246 -393.265625 40.2265625 C-384.48990278 31.60214583 -373.24079836 28.52734531 -361.2157135 28.61231995 C-360.28388054 28.60693441 -359.35204758 28.60154887 -358.39197725 28.59600013 C-355.29771997 28.58179593 -352.20389506 28.5888056 -349.10961914 28.59594727 C-346.87971149 28.59023979 -344.64980677 28.58327406 -342.41990662 28.57514954 C-336.38272033 28.55724549 -330.34567961 28.55838131 -324.30847478 28.56409192 C-319.26129758 28.56718756 -314.21414819 28.56108718 -309.16697496 28.55505317 C-296.57707907 28.5402173 -283.98727061 28.54381381 -271.3973813 28.55591648 C-260.48341985 28.56584803 -249.56962795 28.55290572 -238.65569264 28.52898229 C-227.42637519 28.50455454 -216.19713452 28.49539144 -204.96778387 28.50163502 C-198.67248546 28.50500114 -192.37732715 28.5026121 -186.08204842 28.48538399 C-180.16151361 28.46988766 -174.24130197 28.47390056 -168.3207798 28.49268913 C-166.1532777 28.49636744 -163.9857515 28.4932888 -161.81827164 28.48280334 C-147.07549244 28.41695106 -135.01841657 28.88342508 -123.5 39.25 C-113.36401486 50.39958365 -111.54764202 59.59721828 -111.61904907 74.47923279 C-111.61558903 76.0514256 -111.61082214 77.62361598 -111.60486734 79.19580132 C-111.59237516 83.50022716 -111.5985196 87.80445276 -111.60782599 92.10887921 C-111.61462351 96.7572311 -111.60413173 101.40554895 -111.59588623 106.05389404 C-111.5825539 115.15403609 -111.58542451 124.25410387 -111.59412415 133.35424881 C-111.60090267 140.75145693 -111.60181669 148.14864424 -111.5985527 155.54585457 C-111.598093 156.59916056 -111.59763331 157.65246656 -111.59715968 158.73769091 C-111.59620049 160.8775568 -111.59522785 163.01742268 -111.5942419 165.15728856 C-111.58568936 185.21815151 -111.5955198 205.27897331 -111.611643 225.33982951 C-111.6250441 242.54631645 -111.62271953 259.75274267 -111.60888672 276.95922852 C-111.59282515 296.9473599 -111.58651538 316.93545522 -111.59572351 336.92359215 C-111.59667914 339.05583798 -111.59762225 341.18808382 -111.5985527 343.32032967 C-111.59901553 344.36939367 -111.59947836 345.41845767 -111.59995521 346.49931149 C-111.60254351 353.88559654 -111.5981775 361.27185868 -111.59111404 368.65814018 C-111.58269236 377.66255441 -111.58499319 386.66689019 -111.60095628 395.67129546 C-111.60883026 400.26392006 -111.61194547 404.85641397 -111.60200882 409.44903755 C-111.59304325 413.65653796 -111.59802535 417.86378702 -111.61394148 422.07126475 C-111.61728143 423.59000362 -111.61561295 425.1087639 -111.60831411 426.6274889 C-111.5480268 440.2188313 -113.46695228 450.62432949 -122.74609375 460.94140625 C-132.39998326 470.23402754 -143.77112729 471.74834626 -156.609375 471.70703125 C-158.0719811 471.72018023 -159.53456916 471.73549412 -160.99713135 471.75285339 C-164.80454279 471.79234363 -168.6114754 471.80287022 -172.41906738 471.80688477 C-176.32118936 471.81628501 -180.22303785 471.85374061 -184.125 471.88867188 C-191.75000301 471.95288006 -199.37472061 471.98642079 -207 472 C-204.03552226 473.59531168 -201.06516715 475.17937534 -198.09375 476.76171875 C-197.26713867 477.20672729 -196.44052734 477.65173584 -195.58886719 478.11022949 C-162.34040313 495.76334917 -121.96891824 501.3095254 -85 495 C-84.07251953 494.84402344 -83.14503906 494.68804688 -82.18945312 494.52734375 C-30.96046784 485.66646865 15.13771085 460.37870775 45.80029297 417.71826172 C64.12853832 391.46791764 73.58998453 358.22666825 68.3515625 326.234375 C65.38759421 311.98095077 58.20799235 300.35779866 48.71728516 289.53759766 C34.41231671 273.16916459 22.42317623 255.62594421 22.875 233 C22.88402344 232.12988281 22.89304687 231.25976562 22.90234375 230.36328125 C22.92565381 228.2420658 22.96151421 226.12099438 23 224 C22.38672852 223.90855713 21.77345703 223.81711426 21.14160156 223.72290039 C1.95001627 220.69365703 -15.51633946 209.75727852 -27.26660156 194.33789062 C-32.65767473 186.83025923 -37.14372365 178.81901385 -40 170 C-40.24602463 169.26172974 -40.49204926 168.52345947 -40.74552917 167.76281738 C-43.65911981 157.83579828 -43.45481706 148.03691566 -43.43359375 137.7890625 C-43.43816292 135.84760354 -43.44347067 133.9061462 -43.44947815 131.96469116 C-43.4583636 127.91861344 -43.45603473 123.87273365 -43.44604492 119.82666016 C-43.43450297 114.6483076 -43.45486962 109.4706317 -43.48396206 104.29236794 C-43.50231301 100.29287406 -43.50203479 96.2935432 -43.49632454 92.29401779 C-43.4961715 90.3842816 -43.50220144 88.47453425 -43.51461601 86.56483841 C-43.52952051 83.89907423 -43.518857 81.23457271 -43.50170898 78.56884766 C-43.51137695 77.78640686 -43.52104492 77.00396606 -43.53100586 76.19781494 C-43.44477021 69.78458466 -41.1846245 66.1846245 -36.625 61.625 C-32.59033052 59.81635506 -30.15568213 59.8327291 -25.7734375 59.8984375 C-24.50677246 59.91310059 -23.24010742 59.92776367 -21.93505859 59.94287109 C-20.48220459 59.9711499 -20.48220459 59.9711499 -19 60 C-19.00888245 59.38914047 -19.01776489 58.77828094 -19.0269165 58.14891052 C-19.11562152 51.77344142 -19.1758303 45.39814853 -19.21972656 39.0222168 C-19.23980363 36.64486568 -19.26707113 34.2675637 -19.30175781 31.89038086 C-19.35044614 28.46716155 -19.37300853 25.04459694 -19.390625 21.62109375 C-19.41127014 20.56353378 -19.43191528 19.50597382 -19.45318604 18.41636658 C-19.45511542 12.02706265 -18.77457464 8.21043462 -15 3 C-10.74487466 -1.22046037 -5.65446044 -1.01285822 0 0 Z " fill="#F2EBDD" transform="translate(647,275)"/>
<path d="M0 0 C71.28 0 142.56 0 216 0 C216 121.11 216 242.22 216 367 C144.72 367 73.44 367 0 367 C0 245.89 0 124.78 0 0 Z " fill="#144C2A" transform="translate(281,342)"/>
<path d="M0 0 C0.33 0 0.66 0 1 0 C1 161.04 1 322.08 1 488 C-160.7 488 -322.4 488 -489 488 C-489 487.67 -489 487.34 -489 487 C-488.01217529 486.95625244 -488.01217529 486.95625244 -487.00439453 486.91162109 C-454.06268973 485.32643108 -421.08414992 480.6403858 -389 473 C-387.82211914 472.71962891 -386.64423828 472.43925781 -385.43066406 472.15039062 C-311.11821775 454.09539562 -242.68534912 418.97511521 -183.75878906 370.43847656 C-182.23408966 369.19145701 -180.69269631 367.96490201 -179.1484375 366.7421875 C-166.39956405 356.61241796 -154.89693285 344.97722056 -143.375 333.5 C-142.54621338 332.67588623 -141.71742676 331.85177246 -140.86352539 331.00268555 C-136.03599815 326.16240394 -131.44161012 321.19493799 -127 316 C-126.05062907 314.91695968 -125.10016078 313.83488001 -124.1484375 312.75390625 C-116.34720704 303.81038755 -109.08507668 294.51792969 -102 285 C-101.46761719 284.28859863 -100.93523437 283.57719727 -100.38671875 282.84423828 C-91.27934315 270.63182374 -82.99704999 257.96270042 -75 245 C-74.55060059 244.27522461 -74.10120117 243.55044922 -73.63818359 242.80371094 C-65.31348025 229.29839821 -58.14251928 215.15569275 -51 201 C-50.56268555 200.13616699 -50.12537109 199.27233398 -49.67480469 198.38232422 C-29.35164856 157.91222431 -16.15157676 113.4063428 -8 69 C-7.81840332 68.03594238 -7.63680664 67.07188477 -7.44970703 66.07861328 C-3.36670256 44.22992058 -1.50595949 22.15698813 0 0 Z " fill="#FCF7F2" transform="translate(1023,536)"/>
<path d="M0 0 C0.33 0 0.66 0 1 0 C1.05945801 1.3468689 1.05945801 1.3468689 1.12011719 2.72094727 C4.39289687 73.92198707 20.67280554 142.38862504 51 207 C51.43812012 207.93424805 51.87624023 208.86849609 52.32763672 209.83105469 C59.05297481 224.02869424 66.8869908 237.55667387 75 251 C75.62632324 252.03833984 76.25264648 253.07667969 76.89794922 254.14648438 C84.27876766 266.31644107 91.91166777 278.09365595 100.68603516 289.30517578 C102.69455709 291.89587799 104.62166415 294.54590218 106.5625 297.1875 C110.60601178 302.58372368 114.91214114 307.71342877 119.30078125 312.828125 C121.82459668 315.77452026 124.25931341 318.78667024 126.6875 321.8125 C129.88168295 325.74117422 133.21054268 329.37089272 136.8828125 332.85546875 C138.76187525 334.75879984 140.4998891 336.71043807 142.24609375 338.734375 C145.97155064 343.0240999 149.909594 347.05789914 153.9375 351.0625 C154.60201172 351.73087891 155.26652344 352.39925781 155.95117188 353.08789062 C159.91050154 357.03953972 163.98054898 360.80309309 168.21606445 364.45678711 C170.39548157 366.34211564 172.50820609 368.29485217 174.625 370.25 C180.21133197 375.28449066 186.09167568 379.87965472 192.04003906 384.47265625 C194.06010964 386.04684179 196.05859708 387.64554157 198.0546875 389.25 C274.9035006 450.64964298 371.78914581 485.5694852 485 495 C485 495.33 485 495.66 485 496 C324.95 496 164.9 496 0 496 C0 332.32 0 168.64 0 0 Z " fill="#FCF7F1" transform="translate(0,528)"/>
<path d="M0 0 C162.36 0 324.72 0 492 0 C492 161.37 492 322.74 492 489 C491.67 489 491.34 489 491 489 C490.96036133 488.25355225 490.92072266 487.50710449 490.87988281 486.73803711 C485.3701193 386.65668357 452.74849807 288.89635231 393 208 C392.54061035 207.37077637 392.0812207 206.74155273 391.60791016 206.09326172 C385.33159986 197.50076885 378.79915654 189.24599442 371.796875 181.234375 C369.29698657 178.36914428 366.92337905 175.41875603 364.5625 172.4375 C360.56551535 167.50133317 356.18642044 163.06993156 351.65869141 158.62915039 C348.78343978 155.8049862 346.02607211 152.96989428 343.4375 149.875 C339.25725402 144.96552192 334.40545396 140.7708613 329.61914062 136.47070312 C328.00415152 135.00377092 326.41324278 133.51474379 324.828125 132.015625 C317.78963448 125.37366916 310.47516825 119.30146665 302.8046875 113.40625 C300.96379351 111.97178715 299.15100845 110.50781861 297.34375 109.03125 C289.14917805 102.34034852 280.73061424 96.17373779 271.93359375 90.29833984 C270.11135883 89.07477352 268.30400819 87.83225801 266.5 86.58203125 C247.95834367 73.82812478 228.08176823 63.10165377 208 53 C206.64285889 52.31043213 206.64285889 52.31043213 205.25830078 51.60693359 C154.19459691 25.79581987 97.69563407 10.62075037 41 4 C39.58775146 3.83226074 39.58775146 3.83226074 38.14697266 3.66113281 C25.45737506 2.18359289 12.76261114 1.48692693 0 1 C0 0.67 0 0.34 0 0 Z " fill="#FCF7F2" transform="translate(532,0)"/>
<path d="M0 0 C160.38 0 320.76 0 486 0 C486 0.33 486 0.66 486 1 C485.05906494 1.08040527 484.11812988 1.16081055 483.14868164 1.24365234 C386.81998706 9.49964545 296.76230073 36.34325838 186 116 C184.96494261 116.85949407 183.92978193 117.71886376 182.89453125 118.578125 C170.49078456 128.92321677 158.83842284 139.99112828 147.44091797 151.42871094 C145.60889005 153.2661576 143.77149395 155.0981165 141.93359375 156.9296875 C136.07705606 162.78257272 130.32319407 168.65013727 125 175 C124.08800449 176.05665026 123.17527383 177.11266657 122.26171875 178.16796875 C115.92869543 185.59653784 109.82908759 193.16801201 104 201 C103.50773926 201.6609668 103.01547852 202.32193359 102.50830078 203.00292969 C93.84700514 214.68987581 85.74772937 226.68996003 78 239 C77.50677246 239.78004395 77.01354492 240.56008789 76.50537109 241.36376953 C67.05329664 256.40818987 58.97123904 272.13996676 51 288 C50.55527344 288.87479004 50.11054687 289.74958008 49.65234375 290.65087891 C19.04605371 351.0932512 4.05555786 420.69731763 1 488 C0.67 488 0.34 488 0 488 C0 326.96 0 165.92 0 0 Z " fill="#FCF7F2" transform="translate(0,0)"/>
<path d="M0 0 C1.05978561 -0.00860046 2.11957123 -0.01720093 3.21147156 -0.02606201 C4.37925644 -0.03032196 5.54704132 -0.03458191 6.75021362 -0.03897095 C7.9763588 -0.04714844 9.20250397 -0.05532593 10.46580505 -0.06375122 C14.53960847 -0.08864334 18.61337468 -0.1052841 22.68722534 -0.11953735 C24.09057497 -0.12489757 25.49392452 -0.13027508 26.89727402 -0.13566971 C32.73747683 -0.15730362 38.57767687 -0.17603784 44.41790962 -0.1872921 C52.78035449 -0.20351335 61.14233335 -0.23664013 69.50460255 -0.29369295 C75.38752177 -0.33245638 81.27031671 -0.35193258 87.15336025 -0.35721266 C90.66489225 -0.36085875 94.17592735 -0.37279857 97.68732071 -0.4053154 C101.61076592 -0.44112535 105.53363202 -0.43700885 109.45724487 -0.42959595 C110.61288437 -0.44600128 111.76852386 -0.46240662 112.95918274 -0.47930908 C118.9280569 -0.43319433 123.23920823 0.12453171 128.29195976 3.39706993 C139.52906796 15.01015 133.99191284 26.90495253 133.99191284 44.15390015 C84.82191284 44.15390015 35.65191284 44.15390015 -15.00808716 44.15390015 C-15.00808716 11.15390015 -15.00808716 11.15390015 -12.00808716 5.15390015 C-7.88209506 1.43044386 -5.49625082 0.03313481 0 0 Z " fill="#F2EBDD" transform="translate(330.0080871582031,243.84609985351563)"/>
<path d="M0 0 C51.15 0 102.3 0 155 0 C155 6.93 155 13.86 155 21 C103.85 21 52.7 21 0 21 C0 14.07 0 7.14 0 0 Z " fill="#F3EDE0" transform="translate(312,633)"/>
<path d="M0 0 C51.15 0 102.3 0 155 0 C155 6.93 155 13.86 155 21 C103.85 21 52.7 21 0 21 C0 14.07 0 7.14 0 0 Z " fill="#F1EADB" transform="translate(312,554)"/>
<path d="M0 0 C51.15 0 102.3 0 155 0 C155 6.93 155 13.86 155 21 C103.85 21 52.7 21 0 21 C0 14.07 0 7.14 0 0 Z " fill="#F3ECDF" transform="translate(312,476)"/>
<path d="M0 0 C51.15 0 102.3 0 155 0 C155 6.93 155 13.86 155 21 C103.85 21 52.7 21 0 21 C0 14.07 0 7.14 0 0 Z " fill="#F2ECDF" transform="translate(312,398)"/>
<path d="M0 0 C70.95 0 141.9 0 215 0 C215 121.11 215 242.22 215 367 C144.05 367 73.1 367 0 367 C0 366.67 0 366.34 0 366 C70.29 366 140.58 366 213 366 C213 245.88 213 125.76 213 2 C143.04 2 73.08 2 1 2 C1 121.79 1 241.58 1 365 C0.67 365 0.34 365 0 365 C0 244.55 0 124.1 0 0 Z " fill="#012808" transform="translate(282,342)"/>
<path d="M0 0 C1 2 1 2 0.58876038 3.75906372 C0.33783127 4.4652182 0.08690216 5.17137268 -0.17163086 5.89892578 C-0.45199692 6.6996048 -0.73236298 7.50028381 -1.02122498 8.32522583 C-1.33261917 9.18985443 -1.64401337 10.05448303 -1.96484375 10.9453125 C-2.27700333 11.8303244 -2.5891629 12.7153363 -2.91078186 13.62716675 C-3.91263132 16.4623349 -4.92493207 19.29364437 -5.9375 22.125 C-6.61722638 24.04272435 -7.29627183 25.9606902 -7.97460938 27.87890625 C-9.64057464 32.58928538 -11.32060513 37.29430593 -13 42 C-5.08 42.33 2.84 42.66 11 43 C4.25820257 53.11269615 4.25820257 53.11269615 1.40625 56.8046875 C0.77517334 57.62614258 0.14409668 58.44759766 -0.50610352 59.29394531 C-1.16408936 60.14569336 -1.8220752 60.99744141 -2.5 61.875 C-8.49932869 69.69008926 -14.41006075 77.56120719 -20.21875 85.51904297 C-24.04984226 90.75635217 -27.991469 95.89727878 -32 101 C-33.29208324 98.41583352 -32.80822073 97.50423884 -32.10375977 94.73388672 C-31.88345596 93.85312469 -31.66315216 92.97236267 -31.43617249 92.06491089 C-31.19039963 91.11278717 -30.94462677 90.16066345 -30.69140625 89.1796875 C-30.44583481 88.20589142 -30.20026337 87.23209534 -29.94725037 86.22879028 C-29.15892201 83.10914782 -28.3608277 79.99209697 -27.5625 76.875 C-27.02735127 74.76448598 -26.49283772 72.6538108 -25.95898438 70.54296875 C-24.64788298 65.35973433 -23.32361928 60.1801164 -22 55 C-33.385 54.505 -33.385 54.505 -45 54 C-41.31467048 49.0862273 -37.67981441 44.32350013 -33.6875 39.6875 C-30.2846976 35.70392807 -26.9210347 31.69800052 -23.625 27.625 C-18.41793521 21.22640867 -12.98934313 15.02401577 -7.56884766 8.80664062 C-5.03086912 5.88397627 -2.51449791 2.94286883 0 0 Z " fill="#134928" transform="translate(700,360)"/>
<path d="M0 0 C51.15 0 102.3 0 155 0 C155 6.93 155 13.86 155 21 C103.85 21 52.7 21 0 21 C0 14.07 0 7.14 0 0 Z M1 2 C1 7.94 1 13.88 1 20 C51.16 20 101.32 20 153 20 C153 14.06 153 8.12 153 2 C102.84 2 52.68 2 1 2 Z " fill="#FBFAF6" transform="translate(312,554)"/>
<path d="M0 0 C50.82 0 101.64 0 154 0 C154 6.6 154 13.2 154 20 C144.76 20 135.52 20 126 20 C126 19.67 126 19.34 126 19 C84.42 18.67 42.84 18.34 0 18 C0 12.06 0 6.12 0 0 Z M1 1 C1 6.28 1 11.56 1 17 C50.5 17 100 17 151 17 C151 11.72 151 6.44 151 1 C101.5 1 52 1 1 1 Z " fill="#E9E3D4" transform="translate(313,634)"/>
<path d="M0 0 C2.74041824 2.502121 3.90978274 4.36224937 4.12025452 8.18302917 C4.11803391 9.02908218 4.11581329 9.87513519 4.11352539 10.74682617 C4.11340454 11.72099487 4.11328369 12.69516357 4.11315918 13.69885254 C4.10804321 14.71991089 4.10292725 15.74096924 4.09765625 16.79296875 C4.09664917 17.73354126 4.09564209 18.67411377 4.09460449 19.64318848 C4.089371 23.15797138 4.07540974 26.67273691 4.0625 30.1875 C4.041875 38.045625 4.02125 45.90375 4 54 C23.14 54 42.28 54 62 54 C62 54.66 62 55.32 62 56 C42.2 56 22.4 56 2 56 C1.5625 30.25 1.5625 30.25 1.43188477 22.13378906 C1.39375902 20.01106108 1.35528964 17.88833924 1.31640625 15.765625 C1.29993042 14.66331543 1.28345459 13.56100586 1.26647949 12.42529297 C1.23620667 10.84240479 1.23620667 10.84240479 1.20532227 9.22753906 C1.18977798 8.31264709 1.1742337 7.39775513 1.15821838 6.45513916 C1.01124397 4.1744773 0.63722814 2.18869415 0 0 Z " fill="#2D442F" transform="translate(653,279)"/>
<path d="M0 0 C0.33 0 0.66 0 1 0 C1 10.56 1 21.12 1 32 C23.11 32 45.22 32 68 32 C68 32.33 68 32.66 68 33 C45.23 33.33 22.46 33.66 -1 34 C-1 1 -1 1 0 0 Z " fill="#E5E8E2" transform="translate(316,254)"/>
<path d="M0 0 C22.11 0 44.22 0 67 0 C63.02763762 1.98618119 61.37733818 2.27483549 57.08569336 2.36645508 C55.89443344 2.39600784 54.70317352 2.42556061 53.47581482 2.45600891 C51.55225914 2.48745247 51.55225914 2.48745247 49.58984375 2.51953125 C48.27085587 2.54601242 46.95186798 2.57249359 45.59291077 2.59977722 C42.80477103 2.65412509 40.01662356 2.70092979 37.22827148 2.74291992 C33.65443432 2.79771244 30.08149456 2.87522528 26.50823116 2.95886707 C23.09814889 3.03475099 19.68780812 3.0883879 16.27734375 3.14453125 C14.35075172 3.19115654 14.35075172 3.19115654 12.38523865 3.23872375 C11.19713089 3.25251572 10.00902313 3.26630768 8.78491211 3.28051758 C7.73774521 3.2989119 6.69057831 3.31730621 5.61167908 3.33625793 C3 3 3 3 0 0 Z " fill="#274128" transform="translate(439,746)"/>
<path d="M0 0 C1.38120529 0.0001133 1.38120529 0.0001133 2.79031372 0.00022888 C4.28412064 0.00797081 4.28412064 0.00797081 5.80810547 0.01586914 C7.33538773 0.01799156 7.33538773 0.01799156 8.89352417 0.02015686 C12.15414332 0.02576639 15.41469448 0.03832051 18.67529297 0.05102539 C20.88232323 0.05603916 23.08935456 0.06060228 25.29638672 0.06469727 C30.71437877 0.07573891 36.13233101 0.09248634 41.55029297 0.11352539 C41.55029297 0.44352539 41.55029297 0.77352539 41.55029297 1.11352539 C36.94689076 1.5484561 32.3428293 1.97530434 27.73803711 2.39526367 C26.17761943 2.5386508 24.61738917 2.68409523 23.05737305 2.83178711 C13.51747332 3.73333983 4.14206842 4.34162442 -5.44970703 4.11352539 C-5.77970703 3.12352539 -6.10970703 2.13352539 -6.44970703 1.11352539 C-4.07579867 -0.07342879 -2.64725752 -0.00723294 0 0 Z " fill="#EFF1EC" transform="translate(444.44970703125,-0.113525390625)"/>
<path d="M0 0 C1 2 1 2 0.60221863 3.75233459 C0.35732193 4.45547287 0.11242523 5.15861115 -0.13989258 5.88305664 C-0.41380325 6.68050797 -0.68771393 7.47795929 -0.96992493 8.29957581 C-1.42760506 9.59181313 -1.42760506 9.59181313 -1.89453125 10.91015625 C-2.20194748 11.79279648 -2.50936371 12.67543671 -2.82609558 13.58482361 C-3.47905902 15.45311664 -4.13585255 17.32007475 -4.79614258 19.18579102 C-5.80823028 22.05041494 -6.80431543 24.92024971 -7.79882812 27.79101562 C-8.43394002 29.60189801 -9.06997677 31.41245634 -9.70703125 33.22265625 C-10.00607864 34.08617203 -10.30512604 34.94968781 -10.61323547 35.83937073 C-11.03828621 37.03081947 -11.03828621 37.03081947 -11.47192383 38.24633789 C-11.71920731 38.94868057 -11.96649078 39.65102325 -12.2212677 40.37464905 C-13 42 -13 42 -15 43 C-12.52891267 33.1590031 -9.26306008 23.59909908 -6 14 C-9.28158484 14 -11.37881108 16.17656423 -14 18 C-12.44904419 14.37830859 -10.23134948 11.87481981 -7.5625 9 C-4.87341115 6.09383478 -2.31438774 3.21484084 0 0 Z " fill="#0D2912" transform="translate(700,360)"/>
<path d="M0 0 C0.33 0 0.66 0 1 0 C0.38487182 5.00890086 -0.2717552 10.00632136 -1 15 C0.32 15.33 1.64 15.66 3 16 C3 20.2650016 0.55526586 22.50032379 -2 25.6875 C-2.47695313 26.29400391 -2.95390625 26.90050781 -3.4453125 27.52539062 C-4.62376394 29.02202396 -5.81105188 30.51169173 -7 32 C-8.50723156 28.98553688 -7.42180781 26.97850004 -6.6015625 23.75 C-6.12976563 21.87828125 -6.12976563 21.87828125 -5.6484375 19.96875 C-5.39658691 18.99228516 -5.39658691 18.99228516 -5.13964844 17.99609375 C-4.62747275 16.00959071 -4.12533349 14.02076505 -3.625 12.03125 C-1.15401786 2.30803571 -1.15401786 2.30803571 0 0 Z " fill="#173F23" transform="translate(675,429)"/>
<path d="M0 0 C0.66 0 1.32 0 2 0 C2 10.56 2 21.12 2 32 C-12.85 31.505 -12.85 31.505 -28 31 C-28 30.67 -28 30.34 -28 30 C-18.76 30 -9.52 30 0 30 C0 20.1 0 10.2 0 0 Z " fill="#E1E5DE" transform="translate(462,256)"/>
<path d="M0 0 C0.33 0 0.66 0 1 0 C1 13.2 1 26.4 1 40 C-0.32 40.66 -1.64 41.32 -3 42 C-2.10838206 27.9922129 -1.04781562 13.99680343 0 0 Z " fill="#E2E8E1" transform="translate(1023,536)"/>
<path d="M0 0 C0.33 0 0.66 0 1 0 C1.33587174 5.74675783 1.65691589 11.49408249 1.96435547 17.24243164 C2.07097583 19.19708423 2.18161703 21.15152187 2.29638672 23.10571289 C2.46082808 25.91766013 2.61070708 28.73006785 2.7578125 31.54296875 C2.81188263 32.41398727 2.86595276 33.2850058 2.92166138 34.18241882 C3.1396114 38.6315537 3.15398775 41.94948768 1 46 C0.67 46 0.34 46 0 46 C0 30.82 0 15.64 0 0 Z " fill="#E9EFE9" transform="translate(0,528)"/>
<path d="M0 0 C13.86 0 27.72 0 42 0 C42 0.66 42 1.32 42 2 C38.17913105 3.30278992 34.51441825 2.9215199 30.5625 2.625 C29.0547717 2.5234813 27.54695383 2.42328656 26.0390625 2.32421875 C24.8310498 2.24373291 24.8310498 2.24373291 23.59863281 2.16162109 C18.88087477 1.86820172 14.15924046 1.65558124 9.4375 1.4375 C8.50301025 1.39383301 7.56852051 1.35016602 6.60571289 1.30517578 C4.40384693 1.20259095 2.20194644 1.10084013 0 1 C0 0.67 0 0.34 0 0 Z " fill="#E9EEE9" transform="translate(532,0)"/>
<path d="M0 0 C0.33 0 0.66 0 1 0 C1 12.87 1 25.74 1 39 C0.67 39 0.34 39 0 39 C-0.33573848 34.08953925 -0.656794 29.17841953 -0.96435547 24.26611328 C-1.07101129 22.59560428 -1.18165569 20.92534492 -1.29638672 19.25537109 C-1.46073099 16.85308654 -1.61064884 14.45026567 -1.7578125 12.046875 C-1.81188263 11.30193787 -1.86595276 10.55700073 -1.92166138 9.78948975 C-2.14034549 5.97854508 -2.18602669 3.22383734 0 0 Z " fill="#ECF0EB" transform="translate(1023,450)"/>
<path d="M0 0 C2.57302076 6.86138869 -0.61234617 14.51278959 -3 21 C-3.66 21 -4.32 21 -5 21 C-5 22.65 -5 24.3 -5 26 C-5.66 26 -6.32 26 -7 26 C-5.91047534 19.90726341 -4.51839338 13.9187372 -2.9375 7.9375 C-2.7631543 7.27032959 -2.58880859 6.60315918 -2.40917969 5.91577148 C-1.12278906 1.12278906 -1.12278906 1.12278906 0 0 Z " fill="#EDEFEB" transform="translate(1009,637)"/>
<path d="M0 0 C7.92 0 15.84 0 24 0 C21 3 21 3 18.63989258 3.2487793 C17.73392334 3.19117432 16.8279541 3.13356934 15.89453125 3.07421875 C14.91162109 3.01943359 13.92871094 2.96464844 12.91601562 2.90820312 C11.89185547 2.83537109 10.86769531 2.76253906 9.8125 2.6875 C8.77673828 2.62626953 7.74097656 2.56503906 6.67382812 2.50195312 C4.11468043 2.34864013 1.55732955 2.1807893 -1 2 C-0.67 1.34 -0.34 0.68 0 0 Z " fill="#083111" transform="translate(687,403)"/>
<path d="M0 0 C0.33 0 0.66 0 1 0 C1 11.55 1 23.1 1 35 C0.01 34.67 -0.98 34.34 -2 34 C-2.04241723 31.66705225 -2.04092937 29.33297433 -2 27 C-1.67 26.67 -1.34 26.34 -1 26 C-0.84193469 24.07521187 -0.748865 22.1450079 -0.68359375 20.21484375 C-0.64169922 19.04501953 -0.59980469 17.87519531 -0.55664062 16.66992188 C-0.49766602 14.82237305 -0.49766602 14.82237305 -0.4375 12.9375 C-0.39431641 11.70193359 -0.35113281 10.46636719 -0.30664062 9.19335938 C-0.20015802 6.12902665 -0.09814576 3.06460927 0 0 Z " fill="#EAE6D7" transform="translate(246,681)"/>
<path d="M0 0 C1 3 1 3 -0.14453125 5.7421875 C-0.69496094 6.77601563 -1.24539063 7.80984375 -1.8125 8.875 C-3.74344418 12.53507947 -5.53524144 16.12732126 -7 20 C-7.99 19.67 -8.98 19.34 -10 19 C-9.41992188 18.07380859 -9.41992188 18.07380859 -8.828125 17.12890625 C-5.41354622 11.57598977 -2.47623403 6.03035817 0 0 Z " fill="#102C16" transform="translate(763,447)"/>
<path d="M0 0 C1.4449838 3.85329014 1.25073127 8.11894296 0 12 C-2.05078125 14.25 -2.05078125 14.25 -4 16 C-3.52417032 13.70763814 -3.04423615 11.41612791 -2.5625 9.125 C-2.29566406 7.84882813 -2.02882813 6.57265625 -1.75390625 5.2578125 C-1 2 -1 2 0 0 Z " fill="#132814" transform="translate(671,445)"/>
<path d="M0 0 C0 3 0 3 -2.1875 5.48046875 C-3.115625 6.37378906 -4.04375 7.26710937 -5 8.1875 C-5.928125 9.08855469 -6.85625 9.98960937 -7.8125 10.91796875 C-8.534375 11.60503906 -9.25625 12.29210937 -10 13 C-10.66 12.01 -11.32 11.02 -12 10 C-11.319375 9.649375 -10.63875 9.29875 -9.9375 8.9375 C-6.116342 6.41716174 -3.14280085 3.30582798 0 0 Z " fill="#1C5433" transform="translate(143,157)"/>
<path d="M0 0 C1 2 1 2 0.25 4.9375 C-0.89726872 7.74830836 -1.69701628 9.1157406 -4 11 C-4.99 10.67 -5.98 10.34 -7 10 C-3.535 5.05 -3.535 5.05 0 0 Z " fill="#1B4427" transform="translate(700,360)"/>
<path d="M0 0 C1.485 0.99 1.485 0.99 3 2 C2.67 4.64 2.34 7.28 2 10 C1.01 10 0.02 10 -1 10 C-0.67 6.7 -0.34 3.4 0 0 Z " fill="#E8EAE4" transform="translate(1017,593)"/>
<path d="M0 0 C0.99 0 1.98 0 3 0 C2.67 3.96 2.34 7.92 2 12 C-0.35333796 7.29332409 -0.17102038 5.1306114 0 0 Z " fill="#E4EAE3" transform="translate(4,425)"/>
<path d="M0 0 C3.17119503 1.09351553 4.00783543 2.0126988 5.8125 4.9375 C7 8 7 8 6 11 C4.9944239 9.54550599 3.99569565 8.08627557 3 6.625 C2.443125 5.81289062 1.88625 5.00078125 1.3125 4.1640625 C0 2 0 2 0 0 Z " fill="#EFF1EE" transform="translate(929,211)"/>
<path d="M0 0 C0.99 0.495 0.99 0.495 2 1 C1.01 1.495 1.01 1.495 0 2 C0 1.34 0 0.68 0 0 Z M-1 2 C-0.67 2.66 -0.34 3.32 0 4 C-1.25 7.0625 -1.25 7.0625 -3 10 C-3.99 10.33 -4.98 10.66 -6 11 C-4.7508258 7.54074837 -3.32472205 4.85306797 -1 2 Z " fill="#EBEFEB" transform="translate(941,792)"/>
<path d="M0 0 C2.36964362 2.15422147 3.57980514 4.15961028 5 7 C6.5412312 8.70921589 6.5412312 8.70921589 8 10 C6.68 10 5.36 10 4 10 C3.32845067 8.71086513 2.66291141 7.41859796 2 6.125 C1.62875 5.40570312 1.2575 4.68640625 0.875 3.9453125 C0 2 0 2 0 0 Z " fill="#16311B" transform="translate(734,562)"/>
<path d="M0 0 C0 0.99 0 1.98 0 3 C-1.98 3.66 -3.96 4.32 -6 5 C-6.66 4.34 -7.32 3.68 -8 3 C-2.25 0 -2.25 0 0 0 Z " fill="#E5E4D9" transform="translate(638,776)"/>
<path d="M0 0 C2.12508244 3.18762365 2.5020163 5.26512223 3 9 C2.01 8.67 1.02 8.34 0 8 C-0.79953138 4.71303767 -1.09658936 3.28976808 0 0 Z " fill="#E3E5DB" transform="translate(742,581)"/>
<path d="M0 0 C0.99 0.33 1.98 0.66 3 1 C2.34 3.31 1.68 5.62 1 8 C0.01 8 -0.98 8 -2 8 C-1.34 5.36 -0.68 2.72 0 0 Z " fill="#E0E0D5" transform="translate(695,376)"/>
<path d="M0 0 C0.33 0.66 0.66 1.32 1 2 C0.21625 2.433125 -0.5675 2.86625 -1.375 3.3125 C-4.21698375 4.89220247 -4.21698375 4.89220247 -6 8 C-6.99 7.67 -7.98 7.34 -9 7 C-6.24479785 4.04070881 -3.53372712 1.96318174 0 0 Z " fill="#092812" transform="translate(237,78)"/>
<path d="M0 0 C0 0.66 0 1.32 0 2 C-3.9813783 3.3271261 -7.85045227 3.06915913 -12 3 C-12 2.67 -12 2.34 -12 2 C-7.8803623 0.70756464 -4.33168317 -0.26252625 0 0 Z " fill="#E4E9E2" transform="translate(574,0)"/>
<path d="M0 0 C0.33 0.99 0.66 1.98 1 3 C-1.875 3.125 -1.875 3.125 -5 3 C-5.66 2.34 -6.32 1.68 -7 1 C-4.53721199 -0.231394 -2.7204945 -0.07159196 0 0 Z " fill="#DFE1D6" transform="translate(511,799)"/>
<path d="M0 0 C1.0725 0.2475 2.145 0.495 3.25 0.75 C3.25 1.08 3.25 1.41 3.25 1.75 C-0.38 2.41 -4.01 3.07 -7.75 3.75 C-5.15187156 0.32047046 -4.43092205 -0.2953948 0 0 Z " fill="#E7ECE7" transform="translate(412.75,7.25)"/>
<path d="M0 0 C1.670625 0.061875 1.670625 0.061875 3.375 0.125 C3.705 1.115 4.035 2.105 4.375 3.125 C1.075 2.795 -2.225 2.465 -5.625 2.125 C-3.625 0.125 -3.625 0.125 0 0 Z " fill="#F1F3EF" transform="translate(601.625,4.875)"/>
<path d="M0 0 C3.3 0.99 6.6 1.98 10 3 C6.14943042 3.9626424 4.67192165 4.06292469 1 3 C0.34 2.34 -0.32 1.68 -1 1 C-0.67 0.67 -0.34 0.34 0 0 Z " fill="#E8ECE7" transform="translate(318,987)"/>
</svg>
