<svg version="1.1" id="Layer_1" xmlns="http://www.w3.org/2000/svg" xmlns:xlink="http://www.w3.org/1999/xlink" x="0px" y="0px"
	 width="100%" viewBox="0 0 720 720" enable-background="new 0 0 720 720" xml:space="preserve">
<path fill="#144D2B" opacity="1.000000" stroke="none" 
	d="
M328.000000,1.000002 
	C330.041656,1.000000 332.083344,1.000000 334.588196,1.347541 
	C336.707733,3.395720 338.133606,3.786959 339.000000,1.000000 
	C355.687561,1.000000 372.375122,1.000000 389.562378,1.374975 
	C392.011383,2.408801 393.924866,3.479950 395.916321,3.652673 
	C403.201630,4.284548 410.625916,3.968195 417.787628,5.215750 
	C428.335571,7.053175 438.729370,9.819526 449.140289,12.386978 
	C458.975769,14.812526 469.071320,16.649246 478.476227,20.250063 
	C494.066071,26.218906 509.365692,33.032326 524.454956,40.191082 
	C534.327454,44.874878 543.980164,50.243851 553.074280,56.293571 
	C566.208191,65.030731 579.048035,74.280281 591.439209,84.040222 
	C600.628357,91.278107 609.265442,99.319664 617.482483,107.659317 
	C625.204041,115.496010 632.253723,124.028374 639.228943,132.557236 
	C646.279785,141.178528 653.559448,149.737503 659.507996,159.105408 
	C667.902832,172.325684 675.126221,186.287430 682.923706,199.890182 
	C690.562927,213.216675 695.830811,227.541962 700.682129,242.026260 
	C703.815857,251.382523 706.892456,260.782379 709.381836,270.322571 
	C711.526917,278.543213 712.788757,286.993317 714.472839,295.335541 
	C715.521240,300.528992 716.918335,305.671356 717.625061,310.908691 
	C718.279968,315.761597 718.110168,320.721527 718.590088,325.606201 
	C718.675354,326.474701 720.161011,327.205597 721.000000,328.000000 
	C721.000000,345.687561 721.000000,363.375122 720.651489,381.612335 
	C718.475708,384.071411 718.104858,385.770996 721.000000,387.000000 
	C721.000000,389.041656 721.000000,391.083344 720.640137,393.531891 
	C719.621277,394.500580 718.962280,395.062347 718.303284,395.624146 
	C719.202209,396.082764 720.101074,396.541382 721.000000,397.000000 
	C721.000000,397.444458 721.000000,397.888885 720.648193,398.671570 
	C719.865173,399.641174 719.166138,400.225006 719.044373,400.911316 
	C717.809387,407.869904 716.769531,414.863953 715.475098,421.810822 
	C713.958557,429.949402 712.463135,438.103241 710.547729,446.152710 
	C708.901733,453.070068 706.698853,459.856140 704.703064,466.688812 
	C702.809387,473.172089 701.274841,479.799408 698.842651,486.076813 
	C695.527466,494.633301 691.626648,502.971771 687.764709,511.305359 
	C683.185059,521.187561 678.967529,531.305786 673.521790,540.700745 
	C666.889465,552.142700 659.553040,563.238098 651.758057,573.926941 
	C644.261047,584.207031 636.068420,594.022278 627.647888,603.571289 
	C622.194397,609.755676 615.386292,614.740906 609.890320,620.893311 
	C601.032837,630.808716 590.947998,639.235229 580.133972,646.778137 
	C565.702759,656.843933 551.401062,667.215759 536.233459,676.067749 
	C524.124084,683.134766 511.033142,688.707031 497.957397,693.879822 
	C484.118378,699.354431 469.843353,703.765503 455.639008,708.262817 
	C447.742737,710.762878 439.688354,712.971069 431.547638,714.433960 
	C423.192169,715.935486 414.611938,716.148743 406.201294,717.403503 
	C403.678162,717.779846 401.393768,719.756470 399.000000,721.000000 
	C398.555542,721.000000 398.111115,721.000000 397.337036,720.651550 
	C395.964142,719.694153 394.920837,719.085266 393.877502,718.476379 
	C393.584961,719.317566 393.292480,720.158752 393.000000,721.000000 
	C375.645782,721.000000 358.291534,721.000000 340.394775,720.647705 
	C337.969238,718.700928 336.213501,717.983337 335.000000,721.000000 
	C333.611115,721.000000 332.222198,721.000000 330.442993,720.712158 
	C324.831299,719.354980 319.648010,718.010498 314.379517,717.282166 
	C306.836670,716.239380 299.097137,716.283203 291.683624,714.717163 
	C279.695343,712.184814 267.789795,709.095947 256.064484,705.533997 
	C246.218460,702.542969 236.679260,698.541992 226.888947,694.859070 
	C226.517914,694.824158 226.262177,694.918274 225.703018,694.955322 
	C220.321579,692.812927 215.023560,691.138733 210.208252,688.562439 
	C197.544052,681.786682 185.018494,674.742126 172.578751,667.560303 
	C165.094925,663.239807 157.540497,658.912842 150.620865,653.776245 
	C141.862045,647.274475 133.696014,639.971130 125.312599,632.967651 
	C119.072411,627.754639 112.719566,622.656860 106.747948,617.148926 
	C102.810394,613.516968 99.365540,609.329163 95.872597,605.242798 
	C91.985054,600.694763 88.370865,595.913330 84.494431,591.355408 
	C80.621681,586.801819 76.203331,582.669189 72.681755,577.869568 
	C66.659790,569.662109 60.667835,561.360474 55.540703,552.585754 
	C48.010284,539.698059 40.755013,526.597168 34.312847,513.141663 
	C28.574152,501.155457 23.435341,488.784332 19.255934,476.177246 
	C15.185944,463.900269 12.572900,451.131897 9.507331,438.533691 
	C7.784090,431.451904 6.058488,424.332550 5.027928,417.130768 
	C3.924037,409.416534 3.712378,401.577728 2.915985,393.813354 
	C2.780318,392.490662 1.663532,391.268555 1.000003,390.000000 
	C1.000000,387.958344 1.000000,385.916656 1.359275,383.292664 
	C1.479035,380.806885 1.239518,378.903442 1.000001,377.000000 
	C1.000000,362.312439 1.000000,347.624878 1.375001,332.438049 
	C2.408933,329.989410 3.470384,328.077148 3.654172,326.083984 
	C4.303600,319.040863 4.259748,311.915802 5.225955,304.925049 
	C6.191972,297.935730 8.016793,291.062042 9.533237,284.152588 
	C11.414700,275.580017 12.693213,266.800018 15.438183,258.508850 
	C20.060093,244.548416 24.732601,230.475327 31.024017,217.228592 
	C39.582188,199.209106 49.071232,181.555206 59.337318,164.450485 
	C66.122108,153.146088 74.730827,142.889053 82.980850,132.527679 
	C88.709694,125.332718 95.111641,118.658943 101.406258,111.933319 
	C107.819916,105.080482 114.088081,98.014854 121.114632,91.831856 
	C129.699661,84.277481 138.719254,77.134293 148.074936,70.558861 
	C160.377045,61.912582 172.784561,53.264366 185.899139,45.969639 
	C198.498505,38.961498 211.943298,33.411465 225.233765,27.728605 
	C234.641006,23.706165 244.410034,20.529800 254.055267,17.098167 
	C254.092957,17.220587 254.389969,17.268913 254.389969,17.268913 
	C254.389969,17.268913 253.975708,17.015560 254.143555,16.742393 
	C256.544586,15.974161 258.777771,15.479093 261.056030,15.094635 
	C261.101105,15.205245 261.352539,15.265237 261.352539,15.265237 
	C261.352539,15.265237 260.984467,15.008308 261.172668,14.679227 
	C266.773163,12.974791 272.163055,11.501307 277.605560,10.258054 
	C281.326782,9.408007 285.111572,8.817319 288.885254,8.220055 
	C295.482605,7.175884 302.080597,6.119182 308.702362,5.250762 
	C314.141510,4.537438 319.632202,4.206054 325.059784,3.425238 
	C326.133911,3.270714 327.024689,1.841425 328.000000,1.000002 
M492.948181,400.055176 
	C492.948181,400.055176 492.868408,400.059479 493.029022,400.608582 
	C493.314270,400.848633 493.599518,401.088684 493.965637,401.736450 
	C493.965637,401.736450 494.290192,401.996124 494.464417,402.512787 
	C494.965027,403.022980 495.465637,403.533173 496.003021,404.004791 
	C496.003021,404.004791 495.955505,404.027466 496.066803,404.553162 
	C496.328247,404.781097 496.589691,405.009003 496.877930,405.116272 
	C496.877930,405.116272 496.754883,405.127869 496.902069,405.682343 
	C497.270752,406.112213 497.639404,406.542114 497.992676,406.995361 
	C497.992676,406.995361 498.020264,406.998352 498.078430,407.533142 
	C498.335114,407.766663 498.591766,408.000153 498.877289,408.109741 
	C498.877289,408.109741 498.750336,408.118286 498.887970,408.720642 
	C499.232147,409.213776 499.576294,409.706940 499.966309,410.744843 
	C500.265808,411.179016 500.565338,411.613220 500.915039,412.667328 
	C501.204620,413.188324 501.494202,413.709320 501.819489,414.136566 
	C501.819489,414.136566 501.720581,414.153168 501.834503,414.939880 
	C502.958557,420.293701 504.082581,425.647491 505.068451,431.921082 
	C505.097534,436.275269 505.126648,440.629425 504.974091,445.478149 
	C504.999451,445.651947 505.024780,445.825714 504.756256,446.725281 
	C503.601837,451.897217 502.859802,457.203583 501.224457,462.218719 
	C492.288574,489.621918 473.519348,508.940094 449.676270,523.908264 
	C436.789307,531.998413 422.575592,536.978394 407.262115,540.987732 
	C406.598419,541.217957 405.934753,541.448242 404.468506,541.605103 
	C388.780579,543.975647 373.056183,545.385010 357.231171,543.059814 
	C341.893036,540.806091 327.214935,536.565857 314.446747,527.620544 
	C316.219055,527.410461 317.990387,527.028748 319.763824,527.018616 
	C329.839478,526.960815 339.916290,527.048706 349.990997,526.936096 
	C351.655426,526.917480 353.311554,526.153748 355.017029,525.889404 
	C355.017029,525.889404 354.859589,525.925842 355.630493,525.881531 
	C356.744843,525.516602 357.859192,525.151611 358.957520,524.932129 
	C358.957520,524.932129 358.815125,524.898193 359.572357,524.899414 
	C360.359680,524.452637 361.147003,524.005798 362.400757,523.113403 
	C370.710022,518.875977 375.400360,511.987823 377.519989,502.722504 
	C377.733704,502.527191 377.888611,502.292969 378.558350,501.410278 
	C378.704742,499.934998 378.978943,498.459717 378.979279,496.984406 
	C378.999847,412.384857 379.003784,327.785278 378.954529,243.185745 
	C378.953522,241.457367 378.307587,239.729340 377.569824,238.018158 
	C377.569824,238.018158 377.176849,238.024460 376.998138,237.252182 
	C374.379852,224.589508 366.521332,217.308838 353.987122,214.418961 
	C353.987122,214.418961 354.001312,213.999161 353.385284,213.438950 
	C352.410034,213.295990 351.434845,213.028351 350.459534,213.027939 
	C300.393951,213.006973 250.328369,213.000961 200.262817,213.048233 
	C198.857590,213.049561 197.452911,213.646164 195.622833,214.196167 
	C195.354141,214.386154 195.141754,214.625992 194.263489,215.161194 
	C182.481323,217.847717 175.182434,224.935806 172.536758,237.249100 
	C172.346054,237.497055 172.158829,237.747620 171.421844,238.622009 
	C171.282242,240.098801 171.020828,241.575562 171.020477,243.052383 
	C171.000595,327.628723 170.996658,412.205078 171.042358,496.781403 
	C171.043289,498.521118 171.645157,500.260529 172.220657,502.369843 
	C172.375366,502.634338 172.585037,502.843872 173.008179,503.773438 
	C175.261566,515.642090 182.747986,522.451355 194.518585,526.283081 
	C195.623566,526.520996 196.728241,526.965149 197.833557,526.966736 
	C222.964600,527.003418 248.095764,527.004272 273.226746,526.952026 
	C274.481293,526.949402 275.734711,526.407471 277.656860,526.184937 
	C300.432983,549.883972 328.921082,561.253967 361.808136,564.966431 
	C362.864197,564.940674 363.920288,564.914917 365.803009,565.104065 
	C372.540955,565.036926 379.278870,564.969788 386.830536,565.056152 
	C388.204987,564.959167 389.579407,564.862183 391.792847,564.863037 
	C400.201447,563.256470 408.610016,561.649963 417.678528,560.058533 
	C418.102875,559.949829 418.527222,559.841125 419.692993,559.677795 
	C424.118652,558.246948 428.605927,556.981445 432.960175,555.359009 
	C466.699982,542.786804 493.255066,521.307495 513.198120,490.631439 
	C513.419861,490.018555 513.641602,489.405670 513.896606,488.922424 
	C513.896606,488.922424 513.762878,488.926666 514.336670,488.638733 
	C514.529358,488.047821 514.721985,487.456879 514.940979,486.950226 
	C514.940979,486.950226 514.853149,486.959503 515.395386,486.637238 
	C515.569763,486.044861 515.744141,485.452484 515.945007,484.948486 
	C515.945007,484.948486 515.853271,484.958496 516.399353,484.641541 
	C516.573242,484.048248 516.747131,483.454956 516.947144,482.952026 
	C516.947144,482.952026 516.853638,482.962402 517.399231,482.627655 
	C517.558899,482.024658 517.718567,481.421661 517.910889,480.931488 
	C517.910889,480.931488 517.793640,480.938812 518.373718,480.620331 
	C518.515686,479.995636 518.657715,479.370941 518.838867,478.901642 
	C518.838867,478.901642 518.678650,478.898376 519.317078,478.594574 
	C519.529053,477.703186 519.741028,476.811798 519.996155,475.977539 
	C519.996155,475.977539 519.924805,475.971954 520.459839,475.621765 
	C520.589050,475.006958 520.718201,474.392120 520.884460,473.924286 
	C520.884460,473.924286 520.733032,473.930481 521.360962,473.587494 
	C521.540894,472.672485 521.720825,471.757477 521.925781,470.950745 
	C521.925781,470.950745 521.814758,470.955688 522.416565,470.580170 
	C522.576721,469.665710 522.736877,468.751282 522.922607,467.945984 
	C522.922607,467.945984 522.810547,467.950409 523.472290,467.581390 
	C523.924500,465.313538 524.376709,463.045685 524.839783,460.938385 
	C524.839783,460.938385 524.680664,460.914368 525.361816,460.548492 
	C526.572021,452.436218 528.528259,444.343842 528.745728,436.205048 
	C528.906372,430.191406 526.800964,424.117218 525.851807,418.026337 
	C525.851807,418.026337 525.872742,418.177917 525.901550,417.392944 
	C525.507874,416.283142 525.114136,415.173309 524.875793,414.060913 
	C524.875793,414.060913 524.847900,414.213715 524.898865,413.451782 
	C524.515991,412.591278 524.133118,411.730774 523.727783,410.710144 
	C523.727783,410.710144 523.881897,410.661346 523.879456,409.892731 
	C523.518127,409.274475 523.156799,408.656250 522.924927,408.057648 
	C522.924927,408.057648 522.884460,408.182159 522.869019,407.550812 
	C522.570251,407.040161 522.271423,406.529541 522.002380,406.002563 
	C522.002380,406.002563 521.976135,406.027130 521.920715,405.299683 
	C521.453552,404.561279 520.986450,403.822906 520.250366,403.071075 
	C520.250366,403.071075 519.991699,402.996368 519.928833,402.368134 
	C519.390991,401.482086 518.853210,400.596039 518.239502,399.837585 
	C518.239502,399.837585 518.372864,399.772400 518.213989,399.195465 
	C517.859131,398.736755 517.504272,398.278046 517.060181,397.931091 
	C517.060181,397.931091 517.187317,397.865631 517.064880,397.246887 
	C516.455872,396.414185 515.846802,395.581451 515.081299,394.959869 
	C515.081299,394.959869 515.269043,394.775970 515.070923,394.125305 
	C513.113770,391.674683 511.156616,389.224030 509.147919,386.877869 
	C509.147919,386.877869 509.257141,386.837341 509.085114,386.322052 
	C508.811859,386.098785 508.538605,385.875519 508.236420,385.783661 
	C508.236420,385.783661 508.363800,385.740143 508.165924,385.218018 
	C507.768097,384.845856 507.370270,384.473724 506.745331,383.501099 
	C505.533234,382.319122 504.321167,381.137115 502.947479,379.435944 
	C502.671265,379.218231 502.395050,379.000549 502.099579,378.895569 
	C502.099579,378.895569 502.213135,378.881897 502.060364,378.354370 
	C501.783508,378.129425 501.506653,377.904510 501.198975,377.803833 
	C501.198975,377.803833 501.322693,377.770996 501.156433,377.273407 
	C500.900238,377.043335 500.644073,376.813293 500.289886,376.845276 
	C500.289886,376.845276 500.444305,376.611969 500.209808,376.095123 
	C499.796539,375.769562 499.383270,375.444000 498.523621,374.566101 
	C496.977753,371.039703 495.431885,367.513306 493.930237,363.150574 
	C493.670532,359.447296 493.410828,355.744049 493.067719,352.047211 
	C493.067719,352.047211 493.092621,352.127106 493.854889,351.930420 
	C497.940125,350.648804 502.025330,349.367188 506.042358,348.025238 
	C506.042358,348.025238 506.054504,348.115448 506.728882,348.067169 
	C507.901367,347.457825 509.073883,346.848480 510.145355,346.202332 
	C510.145355,346.202332 510.164856,346.308075 510.758667,346.180969 
	C511.243317,345.848755 511.727966,345.516571 512.117004,345.145477 
	C512.117004,345.145477 512.119873,345.248627 512.706665,345.129333 
	C513.169189,344.776093 513.631714,344.422852 514.031311,344.013947 
	C514.031311,344.013947 514.042480,344.097198 514.649292,343.986206 
	C514.935486,343.703674 515.221619,343.421143 515.998352,343.064545 
	C516.345459,342.743561 516.692627,342.422577 517.571411,341.976318 
	C517.813110,341.720245 518.054810,341.464203 518.173950,341.179962 
	C518.173950,341.179962 518.202759,341.302399 518.705383,341.160339 
	C518.945312,340.915833 519.185303,340.671326 519.064331,340.257294 
	C519.064331,340.257294 519.403137,340.467529 519.905212,340.205719 
	C520.293701,339.814667 520.682129,339.423645 521.699158,338.806183 
	C532.185120,329.496948 538.128784,317.778168 540.592346,303.985992 
	C540.592346,303.985992 541.015686,304.003418 541.565247,303.378601 
	C541.703186,302.738190 541.960693,302.097931 541.961548,301.457336 
	C541.984009,284.727844 541.996643,267.998291 541.941467,251.268967 
	C541.937927,250.191132 541.376038,249.115112 540.962402,247.475937 
	C540.692017,246.991013 540.421631,246.506088 539.987488,245.269562 
	C538.310059,242.391907 536.632629,239.514252 534.545471,235.868378 
	C532.298035,235.583130 530.027222,234.944962 527.808533,235.092285 
	C524.139832,235.335861 522.803345,234.136566 522.916504,230.322754 
	C523.168335,221.840271 523.074829,213.343674 522.921082,204.856476 
	C522.891724,203.237503 521.937500,201.635300 521.021667,199.524643 
	C518.963562,195.637787 515.780151,193.522003 511.358490,194.163071 
	C507.494843,194.723206 504.609009,196.719940 503.932648,201.690918 
	C503.834290,202.132156 503.735931,202.573395 503.223267,202.624268 
	C502.866089,202.490295 502.508881,202.356323 502.151703,202.222336 
	C502.105164,202.373474 502.018036,202.524567 502.017944,202.675735 
	C502.012146,211.967957 501.878693,221.263153 502.083099,230.550903 
	C502.160645,234.074417 500.951813,235.137863 497.503784,235.073593 
	C487.551239,234.888062 477.589233,234.848389 467.638977,235.087433 
	C463.805145,235.179550 462.819122,233.799332 462.919861,230.185822 
	C463.146393,222.061417 463.064728,213.925156 462.931580,205.796616 
	C462.903961,204.110703 462.108704,202.437363 461.199799,200.338638 
	C459.304382,196.262283 456.265533,193.715622 451.620575,194.058655 
	C446.765259,194.417236 444.047546,197.479355 442.424652,202.293350 
	C442.188446,202.525421 442.012421,202.796539 441.366913,203.711746 
	C441.250824,214.454361 441.134766,225.196991 440.183136,236.160339 
	C433.929016,235.962234 428.326111,236.917953 425.959290,244.437805 
	C425.959290,244.437805 425.891266,244.895203 425.592560,244.983994 
	C425.592560,244.983994 425.290985,245.061951 424.597321,245.541199 
	C424.409393,246.165359 424.058594,246.789169 424.057220,247.413742 
	C424.018860,264.869049 423.987061,282.324524 424.077026,299.779358 
	C424.082581,300.852539 425.095337,301.920532 425.884674,303.471313 
	C425.956085,303.636322 426.027496,303.801300 426.010345,304.786438 
	C430.829071,330.701538 446.835785,345.799164 472.160919,352.136902 
	C470.799530,366.494080 475.109863,379.038025 484.413177,390.518372 
	C484.922852,391.020721 485.432556,391.523102 486.093872,392.570953 
	C486.626373,393.087006 487.158875,393.603027 487.913818,394.645050 
	C488.210907,394.869385 488.508026,395.093689 488.822632,395.171692 
	C488.822632,395.171692 488.680328,395.210083 488.867676,395.728058 
	C489.258667,396.102173 489.649658,396.476288 490.230743,397.417542 
	C490.798706,397.954620 491.366669,398.491699 492.095612,399.533569 
	C492.375092,399.733643 492.654541,399.933746 492.948181,400.055176 
M326.983704,203.367859 
	C326.983704,203.367859 326.887695,202.888824 326.980103,201.969696 
	C326.981049,196.671707 326.986053,191.373718 326.981964,186.075729 
	C326.975922,178.302261 325.174500,175.626007 317.596466,171.867691 
	C316.367981,171.581390 315.139984,171.047501 313.910980,171.045242 
	C287.684296,170.997055 261.457428,170.994141 235.230743,171.048233 
	C233.827087,171.051132 232.424606,171.631790 230.638000,172.205765 
	C230.363998,172.367905 230.151596,172.589172 229.321198,173.078094 
	C225.305023,174.791992 222.908569,177.714218 222.900192,182.185532 
	C222.887833,188.796005 223.016571,195.406723 222.930252,202.457245 
	C222.930252,202.457245 223.042648,202.910019 222.979568,203.421799 
	C222.986633,203.593536 222.993683,203.765289 223.581421,204.543701 
	C224.554367,204.695847 225.527237,204.980301 226.500290,204.981003 
	C258.627960,205.004044 290.755707,205.014008 322.883270,204.951385 
	C324.254395,204.948715 325.624146,204.237457 326.983704,203.367859 
z"/>
<path fill="#000000" opacity="1.000000" stroke="none" 
	d="
M261.010986,14.984026 
	C258.777771,15.479093 256.544586,15.974161 254.155457,16.733984 
	C253.999542,16.998739 254.017563,16.975752 254.017563,16.975750 
	C244.410034,20.529800 234.641006,23.706165 225.233765,27.728605 
	C211.943298,33.411465 198.498505,38.961498 185.899139,45.969639 
	C172.784561,53.264366 160.377045,61.912582 148.074936,70.558861 
	C138.719254,77.134293 129.699661,84.277481 121.114632,91.831856 
	C114.088081,98.014854 107.819916,105.080482 101.406258,111.933319 
	C95.111641,118.658943 88.709694,125.332718 82.980850,132.527679 
	C74.730827,142.889053 66.122108,153.146088 59.337318,164.450485 
	C49.071232,181.555206 39.582188,199.209106 31.024017,217.228592 
	C24.732601,230.475327 20.060093,244.548416 15.438183,258.508850 
	C12.693213,266.800018 11.414700,275.580017 9.533237,284.152588 
	C8.016793,291.062042 6.191972,297.935730 5.225955,304.925049 
	C4.259748,311.915802 4.303600,319.040863 3.654172,326.083984 
	C3.470384,328.077148 2.408933,329.989410 1.375001,331.969391 
	C1.000000,221.740036 1.000000,111.480080 1.000000,1.000000 
	C109.687462,1.000000 218.375076,1.000000 327.531342,1.000002 
	C327.024689,1.841425 326.133911,3.270714 325.059784,3.425238 
	C319.632202,4.206054 314.141510,4.537438 308.702362,5.250762 
	C302.080597,6.119182 295.482605,7.175884 288.885254,8.220055 
	C285.111572,8.817319 281.326782,9.408007 277.605560,10.258054 
	C272.163055,11.501307 266.773163,12.974791 261.180481,14.674679 
	C261.000122,14.999211 261.010986,14.984028 261.010986,14.984026 
z"/>
<path fill="#000000" opacity="1.000000" stroke="none" 
	d="
M721.000000,327.531342 
	C720.161011,327.205597 718.675354,326.474701 718.590088,325.606201 
	C718.110168,320.721527 718.279968,315.761597 717.625061,310.908691 
	C716.918335,305.671356 715.521240,300.528992 714.472839,295.335541 
	C712.788757,286.993317 711.526917,278.543213 709.381836,270.322571 
	C706.892456,260.782379 703.815857,251.382523 700.682129,242.026260 
	C695.830811,227.541962 690.562927,213.216675 682.923706,199.890182 
	C675.126221,186.287430 667.902832,172.325684 659.507996,159.105408 
	C653.559448,149.737503 646.279785,141.178528 639.228943,132.557236 
	C632.253723,124.028374 625.204041,115.496010 617.482483,107.659317 
	C609.265442,99.319664 600.628357,91.278107 591.439209,84.040222 
	C579.048035,74.280281 566.208191,65.030731 553.074280,56.293571 
	C543.980164,50.243851 534.327454,44.874878 524.454956,40.191082 
	C509.365692,33.032326 494.066071,26.218906 478.476227,20.250063 
	C469.071320,16.649246 458.975769,14.812526 449.140289,12.386978 
	C438.729370,9.819526 428.335571,7.053175 417.787628,5.215750 
	C410.625916,3.968195 403.201630,4.284548 395.916321,3.652673 
	C393.924866,3.479950 392.011383,2.408801 390.031067,1.374975 
	C500.259949,1.000000 610.519897,1.000000 721.000000,1.000000 
	C721.000000,109.687462 721.000000,218.375076 721.000000,327.531342 
z"/>
<path fill="#000000" opacity="1.000000" stroke="none" 
	d="
M399.468658,721.000000 
	C401.393768,719.756470 403.678162,717.779846 406.201294,717.403503 
	C414.611938,716.148743 423.192169,715.935486 431.547638,714.433960 
	C439.688354,712.971069 447.742737,710.762878 455.639008,708.262817 
	C469.843353,703.765503 484.118378,699.354431 497.957397,693.879822 
	C511.033142,688.707031 524.124084,683.134766 536.233459,676.067749 
	C551.401062,667.215759 565.702759,656.843933 580.133972,646.778137 
	C590.947998,639.235229 601.032837,630.808716 609.890320,620.893311 
	C615.386292,614.740906 622.194397,609.755676 627.647888,603.571289 
	C636.068420,594.022278 644.261047,584.207031 651.758057,573.926941 
	C659.553040,563.238098 666.889465,552.142700 673.521790,540.700745 
	C678.967529,531.305786 683.185059,521.187561 687.764709,511.305359 
	C691.626648,502.971771 695.527466,494.633301 698.842651,486.076813 
	C701.274841,479.799408 702.809387,473.172089 704.703064,466.688812 
	C706.698853,459.856140 708.901733,453.070068 710.547729,446.152710 
	C712.463135,438.103241 713.958557,429.949402 715.475098,421.810822 
	C716.769531,414.863953 717.809387,407.869904 719.044373,400.911316 
	C719.166138,400.225006 719.865173,399.641174 720.648193,399.004883 
	C721.000000,506.260406 721.000000,613.520813 721.000000,721.000000 
	C613.979187,721.000000 506.958252,721.000000 399.468658,721.000000 
z"/>
<path fill="#000000" opacity="1.000000" stroke="none" 
	d="
M1.000003,390.468658 
	C1.663532,391.268555 2.780318,392.490662 2.915985,393.813354 
	C3.712378,401.577728 3.924037,409.416534 5.027928,417.130768 
	C6.058488,424.332550 7.784090,431.451904 9.507331,438.533691 
	C12.572900,451.131897 15.185944,463.900269 19.255934,476.177246 
	C23.435341,488.784332 28.574152,501.155457 34.312847,513.141663 
	C40.755013,526.597168 48.010284,539.698059 55.540703,552.585754 
	C60.667835,561.360474 66.659790,569.662109 72.681755,577.869568 
	C76.203331,582.669189 80.621681,586.801819 84.494431,591.355408 
	C88.370865,595.913330 91.985054,600.694763 95.872597,605.242798 
	C99.365540,609.329163 102.810394,613.516968 106.747948,617.148926 
	C112.719566,622.656860 119.072411,627.754639 125.312599,632.967651 
	C133.696014,639.971130 141.862045,647.274475 150.620865,653.776245 
	C157.540497,658.912842 165.094925,663.239807 172.578751,667.560303 
	C185.018494,674.742126 197.544052,681.786682 210.208252,688.562439 
	C215.023560,691.138733 220.321579,692.812927 225.698364,694.948242 
	C225.997116,694.998169 225.982651,694.988525 226.042236,695.233093 
	C226.394775,695.323303 226.687714,695.168945 226.987991,695.008972 
	C226.995316,695.003296 227.004227,694.988159 227.004242,694.988159 
	C236.679260,698.541992 246.218460,702.542969 256.064484,705.533997 
	C267.789795,709.095947 279.695343,712.184814 291.683624,714.717163 
	C299.097137,716.283203 306.836670,716.239380 314.379517,717.282166 
	C319.648010,718.010498 324.831299,719.354980 330.026306,720.712158 
	C220.406036,721.000000 110.812080,721.000000 1.000000,721.000000 
	C1.000000,610.979187 1.000000,500.958252 1.000003,390.468658 
z"/>
<path fill="#000000" opacity="1.000000" stroke="none" 
	d="
M335.416656,721.000000 
	C336.213501,717.983337 337.969238,718.700928 339.926147,720.647705 
	C338.611115,721.000000 337.222198,721.000000 335.416656,721.000000 
z"/>
<path fill="#000000" opacity="1.000000" stroke="none" 
	d="
M393.399963,721.000000 
	C393.292480,720.158752 393.584961,719.317566 393.877502,718.476379 
	C394.920837,719.085266 395.964142,719.694153 397.003723,720.651550 
	C395.933319,721.000000 394.866669,721.000000 393.399963,721.000000 
z"/>
<path fill="#000000" opacity="1.000000" stroke="none" 
	d="
M721.000000,386.583344 
	C718.104858,385.770996 718.475708,384.071411 720.651489,382.080994 
	C721.000000,383.388885 721.000000,384.777802 721.000000,386.583344 
z"/>
<path fill="#000000" opacity="1.000000" stroke="none" 
	d="
M721.000000,396.625000 
	C720.101074,396.541382 719.202209,396.082764 718.303284,395.624146 
	C718.962280,395.062347 719.621277,394.500580 720.640137,393.969391 
	C721.000000,394.750000 721.000000,395.500000 721.000000,396.625000 
z"/>
<path fill="#000000" opacity="1.000000" stroke="none" 
	d="
M338.600006,1.000000 
	C338.133606,3.786959 336.707733,3.395720 335.025696,1.347541 
	C336.066681,1.000000 337.133331,1.000000 338.600006,1.000000 
z"/>
<path fill="#969B92" opacity="1.000000" stroke="none" 
	d="
M1.000001,377.428467 
	C1.239518,378.903442 1.479035,380.806885 1.359275,382.855164 
	C1.000000,381.285645 1.000000,379.571289 1.000001,377.428467 
z"/>
<path fill="#F0E9DA" opacity="1.000000" stroke="none" 
	d="
M417.018585,560.043457 
	C408.610016,561.649963 400.201447,563.256470 391.110138,564.603271 
	C388.957214,564.529907 387.487000,564.716248 386.016815,564.902588 
	C379.278870,564.969788 372.540955,565.036926 365.167908,564.769653 
	C363.364899,564.560364 362.196930,564.685608 361.028992,564.810852 
	C328.921082,561.253967 300.432983,549.883972 276.866913,526.032959 
	C248.740311,525.772339 221.403656,525.663818 194.067001,525.555298 
	C182.747986,522.451355 175.261566,515.642090 173.034180,503.424561 
	C173.060181,503.075653 173.269821,502.995453 173.489700,502.648193 
	C173.807755,500.979218 173.991669,499.657532 173.991882,498.335846 
	C174.005417,413.175812 174.008530,328.015747 173.969940,242.855728 
	C173.969223,241.260391 173.458252,239.665268 173.119080,237.784149 
	C172.997269,237.310608 172.941727,237.122986 172.886200,236.935364 
	C175.182434,224.935806 182.481323,217.847717 194.889999,215.095779 
	C195.691544,215.076340 195.866562,215.122299 196.364334,215.422409 
	C197.503860,215.785248 198.320618,215.988846 199.137436,215.989105 
	C249.496689,216.004410 299.855927,216.008804 350.215149,215.970673 
	C351.484650,215.969711 352.753784,215.483353 354.007812,215.127777 
	C353.992554,215.032150 353.978668,214.838974 353.978668,214.838974 
	C366.521332,217.308838 374.379852,224.589508 376.997986,237.636200 
	C376.997864,238.020233 376.822021,237.986389 376.575012,238.318848 
	C376.217743,239.968399 376.011230,241.285477 376.011017,242.602585 
	C375.996155,327.811340 375.993591,413.020081 376.032074,498.228851 
	C376.032776,499.826935 376.538086,501.424835 376.896179,503.000916 
	C376.984436,502.979004 377.164886,502.956635 377.164886,502.956635 
	C375.400360,511.987823 370.710022,518.875977 361.832397,523.432678 
	C360.447754,524.134033 359.631439,524.516113 358.815125,524.898193 
	C358.815125,524.898193 358.957520,524.932129 358.599487,524.887146 
	C357.114136,525.203369 355.986877,525.564636 354.859589,525.925842 
	C354.859589,525.925842 355.017029,525.889404 354.527527,525.755737 
	C339.643433,525.622009 325.248810,525.622009 310.854218,525.622009 
	C310.784027,525.956787 310.713867,526.291565 310.643677,526.626404 
	C311.734222,527.185669 312.824738,527.744995 313.915283,528.304321 
	C327.214935,536.565857 341.893036,540.806091 357.231171,543.059814 
	C373.056183,545.385010 388.780579,543.975647 405.243530,541.718445 
	C406.677887,541.557129 407.337189,541.282471 407.996490,541.007874 
	C422.575592,536.978394 436.789307,531.998413 449.676270,523.908264 
	C473.519348,508.940094 492.288574,489.621918 501.224457,462.218719 
	C502.859802,457.203583 503.601837,451.897217 505.215759,446.357605 
	C506.302582,445.652374 506.929871,445.314819 507.557159,444.977295 
	C506.756683,444.979401 505.956238,444.981537 505.155762,444.983643 
	C505.126648,440.629425 505.097534,436.275269 505.336487,431.460022 
	C505.604523,430.998962 506.002441,430.993896 506.388489,431.004608 
	C512.408997,434.580231 516.408875,432.088745 519.872070,427.547333 
	C515.638062,419.909424 515.638062,419.909424 519.951172,413.718109 
	C517.440308,411.614624 514.902832,409.488861 511.708374,406.812714 
	C513.602234,405.820007 516.302246,404.404694 519.249634,402.992767 
	C519.497009,402.996124 519.991699,402.996368 519.991699,402.996368 
	C519.991699,402.996368 520.250366,403.071075 520.498230,403.392792 
	C521.156128,404.485382 521.566101,405.256256 521.976135,406.027130 
	C521.976135,406.027130 522.002380,406.002563 522.006348,406.318970 
	C522.301636,407.150970 522.593079,407.666565 522.884460,408.182159 
	C522.884460,408.182159 522.924927,408.057648 522.895630,408.419800 
	C523.204895,409.408447 523.543396,410.034912 523.881897,410.661346 
	C523.881897,410.661346 523.727783,410.710144 523.765991,411.154724 
	C524.152039,412.470764 524.500000,413.342255 524.847900,414.213715 
	C524.847900,414.213715 524.875793,414.060913 524.826050,414.428986 
	C525.141785,415.924011 525.507263,417.050964 525.872742,418.177917 
	C525.872742,418.177917 525.851807,418.026337 525.761230,418.472870 
	C526.054321,421.953339 526.438049,424.987274 526.578125,428.351990 
	C526.487000,434.446411 526.639465,440.210022 526.837280,446.385986 
	C526.148682,451.503662 525.414673,456.209015 524.680664,460.914368 
	C524.680664,460.914368 524.839783,460.938385 524.563232,461.116821 
	C523.794678,463.513641 523.302612,465.732025 522.810547,467.950409 
	C522.810547,467.950409 522.922607,467.945984 522.656982,468.121887 
	C522.199158,469.183746 522.006958,470.069702 521.814758,470.955688 
	C521.814758,470.955688 521.925781,470.950745 521.663330,471.127563 
	C521.178345,472.179779 520.955688,473.055145 520.733032,473.930481 
	C520.733032,473.930481 520.884460,473.924286 520.620178,474.045532 
	C520.212158,474.768463 520.068481,475.370209 519.924805,475.971954 
	C519.924805,475.971954 519.996155,475.977539 519.733704,476.176392 
	C519.207031,477.216278 518.942810,478.057312 518.678650,478.898376 
	C518.678650,478.898376 518.838867,478.901642 518.568970,479.015747 
	C518.130615,479.732849 517.962097,480.335846 517.793640,480.938812 
	C517.793640,480.938812 517.910889,480.931488 517.640137,481.056122 
	C517.197388,481.774628 517.025513,482.368500 516.853638,482.962402 
	C516.853638,482.962402 516.947144,482.952026 516.688843,483.092041 
	C516.238098,483.807556 516.045654,484.383026 515.853271,484.958496 
	C515.853271,484.958496 515.945007,484.948486 515.686157,485.088745 
	C515.235962,485.805817 515.044556,486.382660 514.853149,486.959503 
	C514.853149,486.959503 514.940979,486.950226 514.671387,487.078827 
	C514.188782,487.780518 513.975830,488.353577 513.762878,488.926666 
	C513.762878,488.926666 513.896606,488.922424 513.616333,489.038269 
	C513.081848,489.737915 512.827637,490.321777 512.573486,490.905609 
	C493.255066,521.307495 466.699982,542.786804 432.960175,555.359009 
	C428.605927,556.981445 424.118652,558.246948 419.140869,559.535950 
	C418.065338,559.610535 417.541962,559.826965 417.018585,560.043457 
M350.079010,499.458984 
	C350.035950,499.291809 349.992859,499.124634 350.138916,498.890137 
	C350.138916,498.890137 350.244965,499.060669 350.962219,498.738434 
	C351.307312,497.366516 351.953644,495.994812 351.954407,494.622681 
	C352.001251,411.856110 352.002777,329.089478 351.930023,246.322937 
	C351.928772,244.895355 350.971313,243.468643 350.020691,241.860260 
	C350.020691,241.860260 349.906189,241.398987 349.460083,240.679108 
	C348.184113,240.452347 346.908325,240.028214 345.632172,240.027328 
	C298.233154,239.994034 250.834076,239.986435 203.435150,240.064255 
	C201.984726,240.066635 200.535828,241.013687 199.050949,241.894806 
	C199.050949,241.894806 198.697754,242.024200 197.984955,242.320160 
	C197.655411,244.032455 197.043854,245.743942 197.039001,247.457153 
	C196.975266,269.951904 196.997482,292.446930 196.997528,314.941864 
	C196.997665,374.428497 196.981384,433.915131 197.071213,493.401611 
	C197.074066,495.290466 198.166901,497.177704 198.854813,498.901520 
	C198.854813,498.901520 199.036880,498.968231 198.982437,499.414215 
	C198.982437,499.414215 199.012802,499.862427 199.561279,500.501801 
	C200.863464,500.666046 202.165588,500.973236 203.467865,500.973877 
	C250.750565,500.997223 298.033295,501.001801 345.315948,500.947876 
	C346.877228,500.946106 348.437805,500.310699 350.079010,499.458984 
M505.513885,451.272675 
	C506.061218,451.380829 506.608551,451.488983 507.155853,451.597137 
	C507.161652,451.204926 507.167450,450.812714 507.173248,450.420502 
	C506.623077,450.513794 506.072906,450.607056 505.513885,451.272675 
z"/>
<path fill="#F1EBDC" opacity="1.000000" stroke="none" 
	d="
M519.002319,402.989410 
	C516.302246,404.404694 513.602234,405.820007 511.708374,406.812714 
	C514.902832,409.488861 517.440308,411.614624 519.951172,413.718109 
	C515.638062,419.909424 515.638062,419.909424 519.872070,427.547333 
	C516.408875,432.088745 512.408997,434.580231 506.387848,430.570435 
	C505.995483,429.299500 506.180847,428.415985 505.952667,427.656830 
	C504.595032,423.139648 503.141754,418.651245 501.720581,414.153168 
	C501.720581,414.153168 501.819489,414.136566 501.835663,413.859253 
	C501.522827,413.070435 501.193817,412.558929 500.864838,412.047394 
	C500.565338,411.613220 500.265808,411.179016 499.934509,410.145020 
	C499.518585,409.069580 499.134460,408.593933 498.750336,408.118286 
	C498.750336,408.118286 498.877289,408.109741 498.807495,407.917236 
	C498.498535,407.482605 498.259399,407.240479 498.020264,406.998352 
	C498.020264,406.998352 497.992676,406.995361 497.963684,406.681458 
	C497.541412,405.954346 497.148132,405.541107 496.754883,405.127869 
	C496.754883,405.127869 496.877930,405.116272 496.801147,404.919312 
	C496.468079,404.490692 496.211792,404.259064 495.955505,404.027466 
	C495.955505,404.027466 496.003021,404.004791 495.960724,403.726532 
	C495.375702,402.964203 494.832947,402.480164 494.290192,401.996124 
	C494.290192,401.996124 493.965637,401.736450 493.844116,401.259308 
	C493.437866,400.541260 493.153137,400.300385 492.868408,400.059479 
	C492.868408,400.059479 492.948181,400.055176 492.844177,399.854004 
	C492.471680,399.444824 492.203156,399.236786 491.934662,399.028748 
	C491.366669,398.491699 490.798706,397.954620 490.082825,396.843414 
	C489.516724,395.916229 489.098541,395.563141 488.680328,395.210083 
	C488.680328,395.210083 488.822632,395.171692 488.731445,394.962250 
	C488.323975,394.541565 488.007660,394.330322 487.691376,394.119080 
	C487.158875,393.603027 486.626373,393.087006 486.242432,392.116211 
	C485.679382,391.105743 484.967804,390.550018 484.256226,389.994324 
	C475.109863,379.038025 470.799530,366.494080 472.160919,352.136902 
	C446.835785,345.799164 430.829071,330.701538 426.324829,304.064575 
	C426.723816,284.010590 426.812805,264.678406 426.863953,245.346161 
	C426.865082,244.913986 426.436157,244.480667 426.207855,244.047867 
	C428.326111,236.917953 433.929016,235.962234 440.838745,236.134140 
	C441.652985,236.051636 441.811584,235.995331 442.260498,235.947998 
	C442.742310,235.624802 442.933838,235.292618 443.384888,234.641876 
	C443.761719,229.571182 444.030426,224.816757 443.958252,220.067535 
	C443.866608,214.036850 443.498444,208.010391 443.142517,201.962021 
	C443.035522,201.941940 442.837128,202.031723 442.837128,202.031723 
	C444.047546,197.479355 446.765259,194.417236 451.620575,194.058655 
	C456.265533,193.715622 459.304382,196.262283 461.452515,201.042603 
	C461.705261,213.122162 461.705261,224.497742 461.705261,235.910324 
	C475.924957,235.910324 489.466125,235.910324 503.221069,235.954407 
	C503.434814,235.998474 503.870087,235.957535 504.187469,235.685883 
	C504.668671,226.351562 504.901459,217.289246 504.949951,208.225952 
	C504.962769,205.829269 504.407654,203.429565 504.113342,201.031250 
	C504.609009,196.719940 507.494843,194.723206 511.358490,194.163071 
	C515.780151,193.522003 518.963562,195.637787 521.340454,200.234192 
	C521.659241,212.621704 521.659241,224.299652 521.659241,235.821304 
	C526.741028,236.132919 530.848083,236.384766 534.955200,236.636612 
	C536.632629,239.514252 538.310059,242.391907 539.973206,245.622040 
	C539.958923,245.974503 539.761963,245.995041 539.536499,246.339935 
	C539.222229,265.195801 539.126465,283.706726 539.075867,302.217834 
	C539.074280,302.818237 539.534363,303.419891 539.878052,304.030518 
	C539.976807,304.040039 540.168579,303.988556 540.168579,303.988556 
	C538.128784,317.778168 532.185120,329.496948 521.066284,338.952972 
	C520.089966,339.555695 519.746521,340.011597 519.403137,340.467529 
	C519.403137,340.467529 519.064331,340.257294 518.956604,340.339691 
	C518.633484,340.715515 518.418152,341.008972 518.202759,341.302399 
	C518.202759,341.302399 518.173950,341.179962 517.965454,341.244690 
	C517.517944,341.573486 517.278870,341.837555 517.039795,342.101562 
	C516.692627,342.422577 516.345459,342.743561 515.452637,343.164581 
	C514.618713,343.542145 514.330627,343.819672 514.042480,344.097198 
	C514.042480,344.097198 514.031311,344.013947 513.746704,344.055023 
	C513.014709,344.480286 512.567322,344.864471 512.119873,345.248657 
	C512.119873,345.248627 512.117004,345.145477 511.835236,345.145508 
	C511.090607,345.533081 510.627716,345.920563 510.164856,346.308044 
	C510.164856,346.308075 510.145355,346.202332 509.828552,346.158325 
	C508.359344,346.781372 507.206909,347.448425 506.054504,348.115448 
	C506.054504,348.115448 506.042358,348.025238 505.669647,348.030884 
	C501.923676,348.421600 498.514008,348.629944 495.201996,349.312347 
	C494.342041,349.489502 493.787445,351.148651 493.092621,352.127106 
	C493.092621,352.127106 493.067719,352.047211 492.798828,352.309692 
	C492.981995,356.377075 493.433990,360.182007 493.886017,363.986908 
	C495.431885,367.513306 496.977753,371.039703 498.802979,375.139923 
	C499.536316,376.013153 499.990295,376.312561 500.444305,376.611969 
	C500.444305,376.611969 500.289886,376.845276 500.351562,377.002930 
	C500.716370,377.364014 501.019531,377.567505 501.322693,377.770996 
	C501.322693,377.770996 501.198975,377.803833 501.269257,378.017731 
	C501.630737,378.448364 501.921936,378.665131 502.213135,378.881897 
	C502.213135,378.881897 502.099579,378.895569 502.191467,379.096344 
	C502.558594,379.516479 502.833832,379.735809 503.109070,379.955139 
	C504.321167,381.137115 505.533234,382.319122 506.908966,384.098694 
	C507.502991,385.044250 507.933380,385.392212 508.363800,385.740143 
	C508.363800,385.740143 508.236420,385.783661 508.299133,385.997559 
	C508.660278,386.420074 508.958710,386.628723 509.257141,386.837341 
	C509.257141,386.837341 509.147919,386.877869 509.118073,387.275024 
	C508.902252,395.062439 508.946259,395.113007 515.269043,394.775970 
	C515.269043,394.775970 515.081299,394.959869 515.100891,395.231384 
	C515.809448,396.290466 516.498352,397.078064 517.187317,397.865631 
	C517.187317,397.865631 517.060181,397.931091 517.098694,398.203979 
	C517.549072,398.908752 517.960938,399.340576 518.372864,399.772400 
	C518.372864,399.772400 518.239502,399.837585 518.210571,400.114410 
	C518.455200,401.257294 518.728760,402.123352 519.002319,402.989410 
M474.766846,319.416534 
	C482.965515,308.483582 491.164154,297.550598 499.362823,286.617645 
	C499.124664,286.150421 498.886536,285.683228 498.648376,285.216034 
	C493.844238,285.216034 489.040100,285.216034 483.547943,285.216034 
	C486.925171,275.046570 489.985382,265.831696 493.045624,256.616791 
	C492.580841,256.378540 492.116058,256.140259 491.651276,255.902008 
	C481.874603,267.568634 472.097931,279.235291 462.321228,290.901917 
	C462.633179,291.315063 462.945129,291.728210 463.257050,292.141357 
	C468.133057,292.141357 473.009033,292.141357 478.269318,292.141357 
	C476.141052,300.646606 474.114532,308.621429 472.171082,316.616455 
	C471.781464,318.219330 470.554199,320.628448 474.766846,319.416534 
z"/>
<path fill="#F2EBDC" opacity="1.000000" stroke="none" 
	d="
M317.894409,172.553009 
	C325.174500,175.626007 326.975922,178.302261 326.981964,186.075729 
	C326.986053,191.373718 326.981049,196.671707 326.695068,202.459747 
	C326.410004,202.949783 325.939819,202.842575 325.620667,202.587097 
	C323.819305,202.223190 322.337128,202.020813 320.854858,202.020157 
	C288.264984,202.005737 255.675110,202.013687 223.085236,202.017349 
	C223.016571,195.406723 222.887833,188.796005 222.900192,182.185532 
	C222.908569,177.714218 225.305023,174.791992 229.610046,173.078934 
	C229.898880,173.079773 230.010651,173.285156 230.357605,173.504181 
	C231.192093,173.809982 231.679596,173.972397 232.167175,173.972717 
	C259.548126,173.990219 286.929138,174.006958 314.309998,173.957840 
	C315.541748,173.955627 316.772430,173.344391 317.875641,172.924561 
	C317.747681,172.832306 317.894409,172.553009 317.894409,172.553009 
z"/>
<path fill="#053C14" opacity="1.000000" stroke="none" 
	d="
M377.962494,238.001160 
	C378.307587,239.729340 378.953522,241.457367 378.954529,243.185745 
	C379.003784,327.785278 378.999847,412.384857 378.979279,496.984406 
	C378.978943,498.459717 378.704742,499.934998 378.076752,501.687531 
	C377.595154,501.964783 377.201538,501.957855 377.151123,501.494507 
	C377.100739,444.198975 377.088531,387.366852 377.105652,330.534698 
	C377.114746,300.370728 377.174805,270.206726 377.410522,239.841125 
	C377.726959,239.093399 377.844727,238.547272 377.962494,238.001160 
z"/>
<path fill="#00340F" opacity="1.000000" stroke="none" 
	d="
M171.966675,502.000061 
	C171.645157,500.260529 171.043289,498.521118 171.042358,496.781403 
	C170.996658,412.205078 171.000595,327.628723 171.020477,243.052383 
	C171.020828,241.575562 171.282242,240.098801 171.715271,238.779938 
	C172.004456,243.752304 171.925537,248.568100 172.012863,253.380875 
	C172.156616,261.303986 172.407974,269.225128 172.639618,277.518280 
	C172.648560,278.882782 172.631851,279.876129 172.394196,281.189087 
	C172.320312,284.049683 172.467392,286.590576 172.639313,289.473328 
	C172.647400,290.499969 172.630615,291.184753 172.388947,292.218689 
	C172.313324,296.755829 172.462616,300.943817 172.636261,305.560852 
	C172.644135,308.282928 172.627670,310.575989 172.386139,313.220673 
	C172.312210,318.092102 172.463348,322.611938 172.639618,327.540924 
	C172.648865,329.589935 172.632980,331.229767 172.393402,333.211426 
	C172.318893,337.079285 172.468063,340.605316 172.641998,344.540771 
	C172.650803,346.591003 172.634842,348.231781 172.394287,350.176270 
	C172.317459,352.696167 172.465240,354.912415 172.637817,357.565125 
	C172.646423,360.624298 172.630234,363.247009 172.387665,366.224426 
	C172.312088,372.430023 172.462891,378.280914 172.638428,384.505035 
	C172.646759,385.875305 172.630371,386.872345 172.388214,388.225067 
	C172.109787,412.981903 172.051392,437.383057 172.030334,461.784210 
	C172.029648,462.566498 172.411682,463.349152 172.640259,464.573181 
	C172.647141,467.966217 172.629059,470.917664 172.393127,474.162537 
	C172.320755,476.347961 172.466248,478.239990 172.636597,480.471741 
	C172.644745,481.491394 172.628036,482.171326 172.387604,483.209900 
	C172.098145,489.712341 172.032410,495.856201 171.966675,502.000061 
z"/>
<path fill="#002E09" opacity="1.000000" stroke="none" 
	d="
M231.021576,171.943481 
	C232.424606,171.631790 233.827087,171.051132 235.230743,171.048233 
	C261.457428,170.994141 287.684296,170.997055 313.910980,171.045242 
	C315.139984,171.047501 316.367981,171.581390 317.745422,172.210358 
	C317.894409,172.553009 317.747681,172.832306 317.428955,172.770233 
	C288.455811,172.682434 259.801422,172.656693 231.197876,172.444092 
	C231.248734,172.257217 231.021576,171.943497 231.021576,171.943481 
z"/>
<path fill="#3F4F3F" opacity="1.000000" stroke="none" 
	d="
M196.041595,215.168274 
	C195.866562,215.122299 195.691544,215.076340 195.251083,214.973022 
	C195.141754,214.625992 195.354141,214.386154 196.298401,214.087219 
	C249.316406,213.985214 301.658875,213.992188 354.001312,213.999161 
	C354.001312,213.999161 353.987122,214.418961 353.982910,214.628967 
	C353.978668,214.838974 353.992554,215.032150 353.545349,215.037720 
	C320.853516,215.028183 288.608948,214.989594 256.364349,215.006531 
	C236.256744,215.017090 216.149185,215.111496 196.041595,215.168274 
z"/>
<path fill="#053C14" opacity="1.000000" stroke="none" 
	d="
M353.693298,213.719055 
	C301.658875,213.992188 249.316406,213.985214 196.510956,213.971741 
	C197.452911,213.646164 198.857590,213.049561 200.262817,213.048233 
	C250.328369,213.000961 300.393951,213.006973 350.459534,213.027939 
	C351.434845,213.028351 352.410034,213.295990 353.693298,213.719055 
z"/>
<path fill="#0A2912" opacity="1.000000" stroke="none" 
	d="
M503.007294,235.910324 
	C489.466125,235.910324 475.924957,235.910324 461.705261,235.910324 
	C461.705261,224.497742 461.705261,213.122162 461.686279,201.252411 
	C462.108704,202.437363 462.903961,204.110703 462.931580,205.796616 
	C463.064728,213.925156 463.146393,222.061417 462.919861,230.185822 
	C462.819122,233.799332 463.805145,235.179550 467.638977,235.087433 
	C477.589233,234.848389 487.551239,234.888062 497.503784,235.073593 
	C500.951813,235.137863 502.160645,234.074417 502.083099,230.550903 
	C501.878693,221.263153 502.012146,211.967957 502.017944,202.675735 
	C502.018036,202.524567 502.105164,202.373474 502.151703,202.222336 
	C502.508881,202.356323 502.866089,202.490295 503.505310,203.282440 
	C503.732880,214.298294 503.678375,224.655960 503.451599,235.104553 
	C503.098022,235.399277 503.007355,235.637558 503.007294,235.910324 
z"/>
<path fill="#FFFBF1" opacity="1.000000" stroke="none" 
	d="
M426.083557,244.242828 
	C426.436157,244.480667 426.865082,244.913986 426.863953,245.346161 
	C426.812805,264.678406 426.723816,284.010590 426.369080,303.654510 
	C426.027496,303.801300 425.956085,303.636322 425.822144,302.820862 
	C425.742798,283.486633 425.726013,264.802856 425.870728,245.951233 
	C426.146912,245.461670 426.099945,245.165604 425.891266,244.895203 
	C425.891266,244.895203 425.959290,244.437805 426.083557,244.242828 
z"/>
<path fill="#768073" opacity="1.000000" stroke="none" 
	d="
M325.939819,202.842575 
	C325.939819,202.842575 326.410004,202.949783 326.648865,202.919312 
	C326.887695,202.888824 326.983704,203.367859 326.522339,203.659897 
	C291.707550,203.946960 257.354156,203.942001 223.000748,203.937027 
	C222.993683,203.765289 222.986633,203.593536 223.476761,203.197403 
	C257.962585,202.929535 291.951202,202.886047 325.939819,202.842575 
z"/>
<path fill="#053C14" opacity="1.000000" stroke="none" 
	d="
M223.291077,204.240356 
	C257.354156,203.942001 291.707550,203.946960 326.527740,203.904114 
	C325.624146,204.237457 324.254395,204.948715 322.883270,204.951385 
	C290.755707,205.014008 258.627960,205.004044 226.500290,204.981003 
	C225.527237,204.980301 224.554367,204.695847 223.291077,204.240356 
z"/>
<path fill="#FFFFFD" opacity="1.000000" stroke="none" 
	d="
M325.620667,202.587097 
	C291.951202,202.886047 257.962585,202.929535 223.508301,202.941513 
	C223.042648,202.910019 222.930252,202.457245 223.007751,202.237305 
	C255.675110,202.013687 288.264984,202.005737 320.854858,202.020157 
	C322.337128,202.020813 323.819305,202.223190 325.620667,202.587097 
z"/>
<path fill="#00340F" opacity="1.000000" stroke="none" 
	d="
M541.073914,248.038254 
	C541.376038,249.115112 541.937927,250.191132 541.941467,251.268967 
	C541.996643,267.998291 541.984009,284.727844 541.961548,301.457336 
	C541.960693,302.097931 541.703186,302.738190 541.289429,303.362000 
	C540.777893,302.537933 540.542114,301.730438 540.264954,300.461060 
	C540.246460,284.691528 540.269348,269.383881 540.524597,253.770874 
	C540.862549,251.656403 540.968262,249.847336 541.073914,248.038254 
z"/>
<path fill="#0A2912" opacity="1.000000" stroke="none" 
	d="
M194.292786,525.919189 
	C221.403656,525.663818 248.740311,525.772339 276.532806,525.998779 
	C275.734711,526.407471 274.481293,526.949402 273.226746,526.952026 
	C248.095764,527.004272 222.964600,527.003418 197.833557,526.966736 
	C196.728241,526.965149 195.623566,526.520996 194.292786,525.919189 
z"/>
<path fill="#053C14" opacity="1.000000" stroke="none" 
	d="
M525.021240,460.731445 
	C525.414673,456.209015 526.148682,451.503662 526.925537,445.927063 
	C526.919495,439.377625 526.870605,433.699402 526.821716,428.021210 
	C526.438049,424.987274 526.054321,421.953339 525.687866,418.494720 
	C526.800964,424.117218 528.906372,430.191406 528.745728,436.205048 
	C528.528259,444.343842 526.572021,452.436218 525.021240,460.731445 
z"/>
<path fill="#0A2912" opacity="1.000000" stroke="none" 
	d="
M425.709229,246.119095 
	C425.726013,264.802856 425.742798,283.486633 425.699524,302.580658 
	C425.095337,301.920532 424.082581,300.852539 424.077026,299.779358 
	C423.987061,282.324524 424.018860,264.869049 424.057220,247.413742 
	C424.058594,246.789169 424.409393,246.165359 425.004272,245.583481 
	C425.510529,245.790192 425.609863,245.954636 425.709229,246.119095 
z"/>
<path fill="#0A2912" opacity="1.000000" stroke="none" 
	d="
M314.181030,527.962402 
	C312.824738,527.744995 311.734222,527.185669 310.643677,526.626404 
	C310.713867,526.291565 310.784027,525.956787 310.854218,525.622009 
	C325.248810,525.622009 339.643433,525.622009 354.504761,525.678223 
	C353.311554,526.153748 351.655426,526.917480 349.990997,526.936096 
	C339.916290,527.048706 329.839478,526.960815 319.763824,527.018616 
	C317.990387,527.028748 316.219055,527.410461 314.181030,527.962402 
z"/>
<path fill="#0A2912" opacity="1.000000" stroke="none" 
	d="
M534.750366,236.252502 
	C530.848083,236.384766 526.741028,236.132919 521.659241,235.821304 
	C521.659241,224.299652 521.659241,212.621704 521.534668,200.484558 
	C521.937500,201.635300 522.891724,203.237503 522.921082,204.856476 
	C523.074829,213.343674 523.168335,221.840271 522.916504,230.322754 
	C522.803345,234.136566 524.139832,235.335861 527.808533,235.092285 
	C530.027222,234.944962 532.298035,235.583130 534.750366,236.252502 
z"/>
<path fill="#6E7A6C" opacity="1.000000" stroke="none" 
	d="
M172.613953,277.147095 
	C172.407974,269.225128 172.156616,261.303986 172.012863,253.380875 
	C171.925537,248.568100 172.004456,243.752304 171.991882,238.469330 
	C172.158829,237.747620 172.346054,237.497055 172.711487,237.092224 
	C172.941727,237.122986 172.997269,237.310608 173.055237,238.244507 
	C172.909775,251.709564 172.761871,264.428314 172.613953,277.147095 
z"/>
<path fill="#FFFDF9" opacity="1.000000" stroke="none" 
	d="
M503.623901,235.013641 
	C503.678375,224.655960 503.732880,214.298294 503.712463,203.477631 
	C503.735931,202.573395 503.834290,202.132156 504.022980,201.361084 
	C504.407654,203.429565 504.962769,205.829269 504.949951,208.225952 
	C504.901459,217.289246 504.668671,226.351562 504.179688,235.435944 
	C503.777679,235.309647 503.700806,235.161636 503.623901,235.013641 
z"/>
<path fill="#436449" opacity="1.000000" stroke="none" 
	d="
M443.125305,234.960449 
	C442.933838,235.292618 442.742310,235.624802 442.243469,235.483536 
	C441.922943,224.375641 441.909760,213.741196 441.896576,203.106735 
	C442.012421,202.796539 442.188446,202.525421 442.630890,202.162537 
	C442.837128,202.031723 443.035522,201.941940 443.031982,202.420197 
	C443.060760,213.585785 443.093048,224.273117 443.125305,234.960449 
z"/>
<path fill="#053C14" opacity="1.000000" stroke="none" 
	d="
M441.631744,203.409241 
	C441.909760,213.741196 441.922943,224.375641 441.953125,235.474564 
	C441.811584,235.995331 441.652985,236.051636 441.256531,236.023773 
	C441.134766,225.196991 441.250824,214.454361 441.631744,203.409241 
z"/>
<path fill="#EFE9DB" opacity="1.000000" stroke="none" 
	d="
M515.169983,394.450623 
	C508.946259,395.113007 508.902252,395.062439 509.143860,387.222778 
	C511.156616,389.224030 513.113770,391.674683 515.169983,394.450623 
z"/>
<path fill="#EFE9DB" opacity="1.000000" stroke="none" 
	d="
M501.777527,414.546509 
	C503.141754,418.651245 504.595032,423.139648 505.952667,427.656830 
	C506.180847,428.415985 505.995483,429.299500 506.001801,430.559723 
	C506.002441,430.993896 505.604523,430.998962 505.405579,431.000122 
	C504.082581,425.647491 502.958557,420.293701 501.777527,414.546509 
z"/>
<path fill="#EFE9DB" opacity="1.000000" stroke="none" 
	d="
M493.473755,352.028748 
	C493.787445,351.148651 494.342041,349.489502 495.201996,349.312347 
	C498.514008,348.629944 501.923676,348.421600 505.703735,348.061066 
	C502.025330,349.367188 497.940125,350.648804 493.473755,352.028748 
z"/>
<path fill="#6E7A6C" opacity="1.000000" stroke="none" 
	d="
M172.093658,502.184937 
	C172.032410,495.856201 172.098145,489.712341 172.545135,483.665588 
	C173.040878,490.173645 173.155350,496.584534 173.269821,502.995453 
	C173.269821,502.995453 173.060181,503.075653 172.954926,503.037048 
	C172.585037,502.843872 172.375366,502.634338 172.093658,502.184937 
z"/>
<path fill="#EFE9DB" opacity="1.000000" stroke="none" 
	d="
M493.908142,363.568726 
	C493.433990,360.182007 492.981995,356.377075 492.840546,352.306458 
	C493.410828,355.744049 493.670532,359.447296 493.908142,363.568726 
z"/>
<path fill="#053C14" opacity="1.000000" stroke="none" 
	d="
M523.141418,467.765900 
	C523.302612,465.732025 523.794678,463.513641 524.557861,461.036530 
	C524.376709,463.045685 523.924500,465.313538 523.141418,467.765900 
z"/>
<path fill="#436449" opacity="1.000000" stroke="none" 
	d="
M541.018188,247.757095 
	C540.968262,249.847336 540.862549,251.656403 540.403320,253.334885 
	C539.953735,250.801208 539.857849,248.398117 539.761963,245.995041 
	C539.761963,245.995041 539.958923,245.974503 540.055054,245.997833 
	C540.421631,246.506088 540.692017,246.991013 541.018188,247.757095 
z"/>
<path fill="#EFE9DB" opacity="1.000000" stroke="none" 
	d="
M506.391693,348.091309 
	C507.206909,347.448425 508.359344,346.781372 509.879089,346.176758 
	C509.073883,346.848480 507.901367,347.457825 506.391693,348.091309 
z"/>
<path fill="#F1EBDC" opacity="1.000000" stroke="none" 
	d="
M505.064941,445.230896 
	C505.956238,444.981537 506.756683,444.979401 507.557159,444.977295 
	C506.929871,445.314819 506.302582,445.652374 505.362671,445.994690 
	C505.024780,445.825714 504.999451,445.651947 505.064941,445.230896 
z"/>
<path fill="#EFE9DB" opacity="1.000000" stroke="none" 
	d="
M386.423676,564.979370 
	C387.487000,564.716248 388.957214,564.529907 390.690643,564.554382 
	C389.579407,564.862183 388.204987,564.959167 386.423676,564.979370 
z"/>
<path fill="#EFE9DB" opacity="1.000000" stroke="none" 
	d="
M484.334717,390.256348 
	C484.967804,390.550018 485.679382,391.105743 486.166595,391.843445 
	C485.432556,391.523102 484.922852,391.020721 484.334717,390.256348 
z"/>
<path fill="#EFE9DB" opacity="1.000000" stroke="none" 
	d="
M517.126099,397.556274 
	C516.498352,397.078064 515.809448,396.290466 515.179138,395.125824 
	C515.846802,395.581451 516.455872,396.414185 517.126099,397.556274 
z"/>
<path fill="#EFE9DB" opacity="1.000000" stroke="none" 
	d="
M519.249634,402.992767 
	C518.728760,402.123352 518.455200,401.257294 518.248474,400.050598 
	C518.853210,400.596039 519.390991,401.482086 519.960266,402.682251 
	C519.991699,402.996368 519.497009,402.996124 519.249634,402.992767 
z"/>
<path fill="#EFE9DB" opacity="1.000000" stroke="none" 
	d="
M361.418579,564.888672 
	C362.196930,564.685608 363.364899,564.560364 364.754578,564.662170 
	C363.920288,564.914917 362.864197,564.940674 361.418579,564.888672 
z"/>
<path fill="#053C14" opacity="1.000000" stroke="none" 
	d="
M525.887146,417.785431 
	C525.507263,417.050964 525.141785,415.924011 524.748413,414.430298 
	C525.114136,415.173309 525.507874,416.283142 525.887146,417.785431 
z"/>
<path fill="#0A2912" opacity="1.000000" stroke="none" 
	d="
M355.245056,525.903687 
	C355.986877,525.564636 357.114136,525.203369 358.607483,524.814453 
	C357.859192,525.151611 356.744843,525.516602 355.245056,525.903687 
z"/>
<path fill="#0A2912" opacity="1.000000" stroke="none" 
	d="
M359.193726,524.898804 
	C359.631439,524.516113 360.447754,524.134033 361.599182,523.655457 
	C361.147003,524.005798 360.359680,524.452637 359.193726,524.898804 
z"/>
<path fill="#053C14" opacity="1.000000" stroke="none" 
	d="
M522.115662,470.767944 
	C522.006958,470.069702 522.199158,469.183746 522.644165,468.067291 
	C522.736877,468.751282 522.576721,469.665710 522.115662,470.767944 
z"/>
<path fill="#053C14" opacity="1.000000" stroke="none" 
	d="
M521.046997,473.758972 
	C520.955688,473.055145 521.178345,472.179779 521.650818,471.073456 
	C521.720825,471.757477 521.540894,472.672485 521.046997,473.758972 
z"/>
<path fill="#436449" opacity="1.000000" stroke="none" 
	d="
M540.306335,300.922943 
	C540.542114,301.730438 540.777893,302.537933 541.014648,303.674438 
	C541.015686,304.003418 540.592346,303.985992 540.380493,303.987274 
	C540.168579,303.988556 539.976807,304.040039 539.965698,303.644989 
	C540.071838,302.474274 540.189087,301.698608 540.306335,300.922943 
z"/>
<path fill="#053C14" opacity="1.000000" stroke="none" 
	d="
M524.873413,413.832764 
	C524.500000,413.342255 524.152039,412.470764 523.777222,411.234772 
	C524.133118,411.730774 524.515991,412.591278 524.873413,413.832764 
z"/>
<path fill="#053C14" opacity="1.000000" stroke="none" 
	d="
M518.997864,478.746460 
	C518.942810,478.057312 519.207031,477.216278 519.712158,476.147827 
	C519.741028,476.811798 519.529053,477.703186 518.997864,478.746460 
z"/>
<path fill="#053C14" opacity="1.000000" stroke="none" 
	d="
M521.948425,405.663391 
	C521.566101,405.256256 521.156128,404.485382 520.632690,403.399506 
	C520.986450,403.822906 521.453552,404.561279 521.948425,405.663391 
z"/>
<path fill="#EFE9DB" opacity="1.000000" stroke="none" 
	d="
M494.377319,402.254456 
	C494.832947,402.480164 495.375702,402.964203 495.942352,403.745789 
	C495.465637,403.533173 494.965027,403.022980 494.377319,402.254456 
z"/>
<path fill="#053C14" opacity="1.000000" stroke="none" 
	d="
M518.083679,480.779572 
	C517.962097,480.335846 518.130615,479.732849 518.549377,478.938049 
	C518.657715,479.370941 518.515686,479.995636 518.083679,480.779572 
z"/>
<path fill="#053C14" opacity="1.000000" stroke="none" 
	d="
M520.192322,475.796875 
	C520.068481,475.370209 520.212158,474.768463 520.601624,473.972046 
	C520.718201,474.392120 520.589050,475.006958 520.192322,475.796875 
z"/>
<path fill="#053C14" opacity="1.000000" stroke="none" 
	d="
M517.126465,482.795044 
	C517.025513,482.368500 517.197388,481.774628 517.623779,480.999695 
	C517.718567,481.421661 517.558899,482.024658 517.126465,482.795044 
z"/>
<path fill="#053C14" opacity="1.000000" stroke="none" 
	d="
M516.126343,484.800018 
	C516.045654,484.383026 516.238098,483.807556 516.675781,483.046875 
	C516.747131,483.454956 516.573242,484.048248 516.126343,484.800018 
z"/>
<path fill="#053C14" opacity="1.000000" stroke="none" 
	d="
M515.124268,486.798370 
	C515.044556,486.382660 515.235962,485.805817 515.672913,485.044556 
	C515.744141,485.452484 515.569763,486.044861 515.124268,486.798370 
z"/>
<path fill="#053C14" opacity="1.000000" stroke="none" 
	d="
M514.049805,488.782715 
	C513.975830,488.353577 514.188782,487.780518 514.658203,487.036682 
	C514.721985,487.456879 514.529358,488.047821 514.049805,488.782715 
z"/>
<path fill="#053C14" opacity="1.000000" stroke="none" 
	d="
M512.885803,490.768524 
	C512.827637,490.321777 513.081848,489.737915 513.599670,488.973450 
	C513.641602,489.405670 513.419861,490.018555 512.885803,490.768524 
z"/>
<path fill="#315A3A" opacity="1.000000" stroke="none" 
	d="
M377.766174,238.009659 
	C377.844727,238.547272 377.726959,239.093399 377.305603,239.506531 
	C376.942047,238.911163 376.882019,238.448776 376.822021,237.986389 
	C376.822021,237.986389 376.997864,238.020233 377.087341,238.022339 
	C377.176849,238.024460 377.569824,238.018158 377.766174,238.009659 
z"/>
<path fill="#EFE9DB" opacity="1.000000" stroke="none" 
	d="
M417.348572,560.050964 
	C417.541962,559.826965 418.065338,559.610535 418.770142,559.563232 
	C418.527222,559.841125 418.102875,559.949829 417.348572,560.050964 
z"/>
<path fill="#EFE9DB" opacity="1.000000" stroke="none" 
	d="
M518.293457,399.483948 
	C517.960938,399.340576 517.549072,398.908752 517.143311,398.148132 
	C517.504272,398.278046 517.859131,398.736755 518.293457,399.483948 
z"/>
<path fill="#EFE9DB" opacity="1.000000" stroke="none" 
	d="
M510.461731,346.244507 
	C510.627716,345.920563 511.090607,345.533081 511.883026,345.164978 
	C511.727966,345.516571 511.243317,345.848755 510.461731,346.244507 
z"/>
<path fill="#EFE9DB" opacity="1.000000" stroke="none" 
	d="
M512.413269,345.188995 
	C512.567322,344.864471 513.014709,344.480286 513.778137,344.082886 
	C513.631714,344.422852 513.169189,344.776093 512.413269,345.188995 
z"/>
<path fill="#EFE9DB" opacity="1.000000" stroke="none" 
	d="
M488.773987,395.469055 
	C489.098541,395.563141 489.516724,395.916229 489.987793,396.559845 
	C489.649658,396.476288 489.258667,396.102173 488.773987,395.469055 
z"/>
<path fill="#EFE9DB" opacity="1.000000" stroke="none" 
	d="
M407.629303,540.997803 
	C407.337189,541.282471 406.677887,541.557129 405.644836,541.755127 
	C405.934753,541.448242 406.598419,541.217957 407.629303,540.997803 
z"/>
<path fill="#EFE9DB" opacity="1.000000" stroke="none" 
	d="
M500.327057,376.353546 
	C499.990295,376.312561 499.536316,376.013153 499.026123,375.416107 
	C499.383270,375.444000 499.796539,375.769562 500.327057,376.353546 
z"/>
<path fill="#EFE9DB" opacity="1.000000" stroke="none" 
	d="
M500.889954,412.357361 
	C501.193817,412.558929 501.522827,413.070435 501.817810,413.906128 
	C501.494202,413.709320 501.204620,413.188324 500.889954,412.357361 
z"/>
<path fill="#053C14" opacity="1.000000" stroke="none" 
	d="
M523.880676,410.277039 
	C523.543396,410.034912 523.204895,409.408447 522.830933,408.410004 
	C523.156799,408.656250 523.518127,409.274475 523.880676,410.277039 
z"/>
<path fill="#EFE9DB" opacity="1.000000" stroke="none" 
	d="
M498.819153,408.419464 
	C499.134460,408.593933 499.518585,409.069580 499.911560,409.872681 
	C499.576294,409.706940 499.232147,409.213776 498.819153,408.419464 
z"/>
<path fill="#EFE9DB" opacity="1.000000" stroke="none" 
	d="
M519.654175,340.336609 
	C519.746521,340.011597 520.089966,339.555695 520.752014,339.066162 
	C520.682129,339.423645 520.293701,339.814667 519.654175,340.336609 
z"/>
<path fill="#053C14" opacity="1.000000" stroke="none" 
	d="
M522.876709,407.866486 
	C522.593079,407.666565 522.301636,407.150970 521.991455,406.327148 
	C522.271423,406.529541 522.570251,407.040161 522.876709,407.866486 
z"/>
<path fill="#EFE9DB" opacity="1.000000" stroke="none" 
	d="
M508.264862,385.479065 
	C507.933380,385.392212 507.502991,385.044250 507.022522,384.398926 
	C507.370270,384.473724 507.768097,384.845856 508.264862,385.479065 
z"/>
<path fill="#EFE9DB" opacity="1.000000" stroke="none" 
	d="
M496.828491,405.405090 
	C497.148132,405.541107 497.541412,405.954346 497.971375,406.669800 
	C497.639404,406.542114 497.270752,406.112213 496.828491,405.405090 
z"/>
<path fill="#000000" opacity="1.000000" stroke="none" 
	d="
M226.001770,695.005249 
	C226.262177,694.918274 226.517914,694.824158 226.888947,694.859131 
	C227.004227,694.988159 226.995316,695.003296 226.740005,694.944336 
	C226.317352,694.919739 226.149994,694.954163 225.982651,694.988525 
	C225.982651,694.988525 225.997116,694.998169 226.001770,695.005249 
z"/>
<path fill="#000000" opacity="1.000000" stroke="none" 
	d="
M260.992310,15.003759 
	C260.984467,15.008308 261.352539,15.265237 261.352539,15.265237 
	C261.352539,15.265237 261.101105,15.205245 261.056030,15.094637 
	C261.010986,14.984028 261.000122,14.999211 260.992310,15.003759 
z"/>
<path fill="#EFE9DB" opacity="1.000000" stroke="none" 
	d="
M514.345886,344.041687 
	C514.330627,343.819672 514.618713,343.542145 515.207336,343.201630 
	C515.221619,343.421143 514.935486,343.703674 514.345886,344.041687 
z"/>
<path fill="#768073" opacity="1.000000" stroke="none" 
	d="
M230.829788,172.074631 
	C231.021576,171.943497 231.248734,172.257217 230.932617,172.640411 
	C230.414536,173.110779 230.212585,173.197968 230.010651,173.285156 
	C230.010651,173.285156 229.898880,173.079773 229.949829,172.974670 
	C230.151596,172.589172 230.363998,172.367905 230.829788,172.074631 
z"/>
<path fill="#000000" opacity="1.000000" stroke="none" 
	d="
M253.987625,17.007149 
	C253.975708,17.015560 254.389969,17.268913 254.389969,17.268913 
	C254.389969,17.268913 254.092957,17.220587 254.055267,17.098169 
	C254.017563,16.975752 253.999542,16.998739 253.987625,17.007149 
z"/>
<path fill="#315A3A" opacity="1.000000" stroke="none" 
	d="
M377.201538,501.957855 
	C377.201538,501.957855 377.595154,501.964783 377.789917,501.992310 
	C377.888611,502.292969 377.733704,502.527191 377.342438,502.839569 
	C377.164886,502.956635 376.984436,502.979004 376.982422,502.730225 
	C377.054108,502.306885 377.127808,502.132385 377.201538,501.957855 
z"/>
<path fill="#EFE9DB" opacity="1.000000" stroke="none" 
	d="
M509.171143,386.579712 
	C508.958710,386.628723 508.660278,386.420074 508.313599,385.931824 
	C508.538605,385.875519 508.811859,386.098785 509.171143,386.579712 
z"/>
<path fill="#969B92" opacity="1.000000" stroke="none" 
	d="
M425.870728,245.951233 
	C425.609863,245.954636 425.510529,245.790192 425.351105,245.343857 
	C425.290985,245.061951 425.592560,244.983994 425.741913,244.939606 
	C426.099945,245.165604 426.146912,245.461670 425.870728,245.951233 
z"/>
<path fill="#EFE9DB" opacity="1.000000" stroke="none" 
	d="
M517.305603,342.038940 
	C517.278870,341.837555 517.517944,341.573486 518.026733,341.258789 
	C518.054810,341.464203 517.813110,341.720245 517.305603,342.038940 
z"/>
<path fill="#EFE9DB" opacity="1.000000" stroke="none" 
	d="
M487.802612,394.382080 
	C488.007660,394.330322 488.323975,394.541565 488.722687,395.035400 
	C488.508026,395.093689 488.210907,394.869385 487.802612,394.382080 
z"/>
<path fill="#EFE9DB" opacity="1.000000" stroke="none" 
	d="
M501.239563,377.522217 
	C501.019531,377.567505 500.716370,377.364014 500.400543,376.871887 
	C500.644073,376.813293 500.900238,377.043335 501.239563,377.522217 
z"/>
<path fill="#EFE9DB" opacity="1.000000" stroke="none" 
	d="
M502.136749,378.618134 
	C501.921936,378.665131 501.630737,378.448364 501.284668,377.955627 
	C501.506653,377.904510 501.783508,378.129425 502.136749,378.618134 
z"/>
<path fill="#EFE9DB" opacity="1.000000" stroke="none" 
	d="
M503.028259,379.695557 
	C502.833832,379.735809 502.558594,379.516479 502.201111,379.039978 
	C502.395050,379.000549 502.671265,379.218231 503.028259,379.695557 
z"/>
<path fill="#EFE9DB" opacity="1.000000" stroke="none" 
	d="
M498.049347,407.265747 
	C498.259399,407.240479 498.498535,407.482605 498.793060,407.979187 
	C498.591766,408.000153 498.335114,407.766663 498.049347,407.265747 
z"/>
<path fill="#EFE9DB" opacity="1.000000" stroke="none" 
	d="
M496.011169,404.290283 
	C496.211792,404.259064 496.468079,404.490692 496.787750,404.979614 
	C496.589691,405.009003 496.328247,404.781097 496.011169,404.290283 
z"/>
<path fill="#EFE9DB" opacity="1.000000" stroke="none" 
	d="
M492.948730,400.334045 
	C493.153137,400.300385 493.437866,400.541260 493.803650,401.055481 
	C493.599518,401.088684 493.314270,400.848633 492.948730,400.334045 
z"/>
<path fill="#EFE9DB" opacity="1.000000" stroke="none" 
	d="
M518.454102,341.231384 
	C518.418152,341.008972 518.633484,340.715515 519.137085,340.424438 
	C519.185303,340.671326 518.945312,340.915833 518.454102,341.231384 
z"/>
<path fill="#EFE9DB" opacity="1.000000" stroke="none" 
	d="
M492.015137,399.281158 
	C492.203156,399.236786 492.471680,399.444824 492.837097,399.893341 
	C492.654541,399.933746 492.375092,399.733643 492.015137,399.281158 
z"/>
<path fill="#144D2B" opacity="1.000000" stroke="none" 
	d="
M226.042236,695.233093 
	C226.149994,694.954163 226.317352,694.919739 226.732681,694.950012 
	C226.687714,695.168945 226.394775,695.323303 226.042236,695.233093 
z"/>
<path fill="#002E09" opacity="1.000000" stroke="none" 
	d="
M349.906189,241.398987 
	C349.906189,241.398987 350.020691,241.860260 350.245361,242.416794 
	C350.469788,326.177826 350.471222,409.382355 350.459930,492.586853 
	C350.459625,494.744781 350.319733,496.902740 350.244934,499.060669 
	C350.244965,499.060669 350.138916,498.890137 349.579193,498.939514 
	C299.025269,498.981995 249.031082,498.975098 199.036880,498.968231 
	C199.036880,498.968231 198.854813,498.901520 198.776978,498.511566 
	C198.698669,412.755798 198.698212,327.390015 198.697754,242.024200 
	C198.697754,242.024200 199.050949,241.894806 199.530579,241.662048 
	C249.975540,241.419189 299.940857,241.409088 349.906189,241.398987 
M200.003189,329.500000 
	C200.003036,383.635040 200.059128,437.770203 199.903091,491.904816 
	C199.889618,496.573120 200.942642,498.147766 205.892151,498.127625 
	C251.698059,497.941101 297.505310,497.947021 343.311279,498.123474 
	C348.012329,498.141571 349.100281,496.709747 349.093292,492.210571 
	C348.967560,411.091370 348.971161,329.971863 349.088867,248.852600 
	C349.095276,244.445709 348.160614,242.868469 343.365967,242.888046 
	C297.393494,243.075745 251.419739,243.065216 205.447113,242.898438 
	C200.951233,242.882141 199.878708,244.218307 199.909531,248.547241 
	C200.099274,275.197052 200.004456,301.848846 200.003189,329.500000 
z"/>
<path fill="#FFFBF1" opacity="1.000000" stroke="none" 
	d="
M198.341354,242.172180 
	C198.698212,327.390015 198.698669,412.755798 198.725372,498.593628 
	C198.166901,497.177704 197.074066,495.290466 197.071213,493.401611 
	C196.981384,433.915131 196.997665,374.428497 196.997528,314.941864 
	C196.997482,292.446930 196.975266,269.951904 197.039001,247.457153 
	C197.043854,245.743942 197.655411,244.032455 198.341354,242.172180 
z"/>
<path fill="#FFFFFD" opacity="1.000000" stroke="none" 
	d="
M350.603577,498.899536 
	C350.319733,496.902740 350.459625,494.744781 350.459930,492.586853 
	C350.471222,409.382355 350.469788,326.177826 350.465027,242.507416 
	C350.971313,243.468643 351.928772,244.895355 351.930023,246.322937 
	C352.002777,329.089478 352.001251,411.856110 351.954407,494.622681 
	C351.953644,495.994812 351.307312,497.366516 350.603577,498.899536 
z"/>
<path fill="#FFFDF9" opacity="1.000000" stroke="none" 
	d="
M377.151123,501.494507 
	C377.127808,502.132385 377.054108,502.306885 376.894196,502.752136 
	C376.538086,501.424835 376.032776,499.826935 376.032074,498.228851 
	C375.993591,413.020081 375.996155,327.811340 376.011017,242.602585 
	C376.011230,241.285477 376.217743,239.968399 376.575012,238.318848 
	C376.882019,238.448776 376.942047,238.911163 377.106934,239.708160 
	C377.174805,270.206726 377.114746,300.370728 377.105652,330.534698 
	C377.088531,387.366852 377.100739,444.198975 377.151123,501.494507 
z"/>
<path fill="#FFFFFD" opacity="1.000000" stroke="none" 
	d="
M173.489700,502.648193 
	C173.155350,496.584534 173.040878,490.173645 172.768860,483.307007 
	C172.628036,482.171326 172.644745,481.491394 172.793304,480.043762 
	C172.820450,477.473785 172.715714,475.671448 172.610992,473.869141 
	C172.629059,470.917664 172.647141,467.966217 172.796753,464.118347 
	C172.951035,445.244324 173.011581,427.266571 172.977722,409.289001 
	C172.964279,402.148926 172.741470,395.009216 172.613968,387.869354 
	C172.630371,386.872345 172.646759,385.875305 172.795380,384.050842 
	C172.823074,377.438843 172.718552,371.654297 172.614044,365.869720 
	C172.630234,363.247009 172.646423,360.624298 172.795074,357.131775 
	C172.824646,354.132172 172.721771,352.002380 172.618896,349.872589 
	C172.634842,348.231781 172.650803,346.591003 172.797943,344.092957 
	C172.825119,339.780365 172.721100,336.324982 172.617081,332.869598 
	C172.632980,331.229767 172.648865,329.589935 172.795929,327.088837 
	C172.821808,321.774719 172.716507,317.321899 172.611206,312.869049 
	C172.627670,310.575989 172.644135,308.282928 172.793579,305.109985 
	C172.822327,300.109924 172.718094,295.989746 172.613861,291.869568 
	C172.630615,291.184753 172.647400,290.499969 172.795502,289.034943 
	C172.822952,285.792969 172.719055,283.331207 172.615173,280.869446 
	C172.631851,279.876129 172.648560,278.882782 172.639603,277.518280 
	C172.761871,264.428314 172.909775,251.709564 173.121521,238.530426 
	C173.458252,239.665268 173.969223,241.260391 173.969940,242.855728 
	C174.008530,328.015747 174.005417,413.175812 173.991882,498.335846 
	C173.991669,499.657532 173.807755,500.979218 173.489700,502.648193 
z"/>
<path fill="#FFFFFD" opacity="1.000000" stroke="none" 
	d="
M196.364334,215.422409 
	C216.149185,215.111496 236.256744,215.017090 256.364349,215.006531 
	C288.608948,214.989594 320.853516,215.028183 353.560608,215.133331 
	C352.753784,215.483353 351.484650,215.969711 350.215149,215.970673 
	C299.855927,216.008804 249.496689,216.004410 199.137436,215.989105 
	C198.320618,215.988846 197.503860,215.785248 196.364334,215.422409 
z"/>
<path fill="#768073" opacity="1.000000" stroke="none" 
	d="
M199.009659,499.191223 
	C249.031082,498.975098 299.025269,498.981995 349.484619,498.973145 
	C349.992859,499.124634 350.035950,499.291809 349.570343,499.726440 
	C337.263397,499.995453 325.465088,500.008514 313.666809,499.996277 
	C275.448792,499.956665 237.230804,499.907776 199.012802,499.862427 
	C199.012802,499.862427 198.982437,499.414215 199.009659,499.191223 
z"/>
<path fill="#FFFFFD" opacity="1.000000" stroke="none" 
	d="
M349.683136,241.039047 
	C299.940857,241.409088 249.975540,241.419189 199.548218,241.474792 
	C200.535828,241.013687 201.984726,240.066635 203.435150,240.064255 
	C250.834076,239.986435 298.233154,239.994034 345.632172,240.027328 
	C346.908325,240.028214 348.184113,240.452347 349.683136,241.039047 
z"/>
<path fill="#FFFFFD" opacity="1.000000" stroke="none" 
	d="
M199.287048,500.182129 
	C237.230804,499.907776 275.448792,499.956665 313.666809,499.996277 
	C325.465088,500.008514 337.263397,499.995453 349.530212,499.982300 
	C348.437805,500.310699 346.877228,500.946106 345.315948,500.947876 
	C298.033295,501.001801 250.750565,500.997223 203.467865,500.973877 
	C202.165588,500.973236 200.863464,500.666046 199.287048,500.182129 
z"/>
<path fill="#EFE9DB" opacity="1.000000" stroke="none" 
	d="
M526.578125,428.351990 
	C526.870605,433.699402 526.919495,439.377625 526.880127,445.514740 
	C526.639465,440.210022 526.487000,434.446411 526.578125,428.351990 
z"/>
<path fill="#F1EBDC" opacity="1.000000" stroke="none" 
	d="
M505.518311,450.986511 
	C506.072906,450.607056 506.623077,450.513794 507.173218,450.420502 
	C507.167450,450.812714 507.161652,451.204926 507.155884,451.597137 
	C506.608551,451.488983 506.061218,451.380829 505.518311,450.986511 
z"/>
<path fill="#184B2B" opacity="1.000000" stroke="none" 
	d="
M474.476776,319.627045 
	C470.554199,320.628448 471.781464,318.219330 472.171082,316.616455 
	C474.114532,308.621429 476.141052,300.646606 478.269318,292.141357 
	C473.009033,292.141357 468.133057,292.141357 463.257050,292.141357 
	C462.945129,291.728210 462.633179,291.315063 462.321228,290.901917 
	C472.097931,279.235291 481.874603,267.568634 491.651276,255.902008 
	C492.116058,256.140259 492.580841,256.378540 493.045624,256.616791 
	C489.985382,265.831696 486.925171,275.046570 483.547943,285.216034 
	C489.040100,285.216034 493.844238,285.216034 498.648376,285.216034 
	C498.886536,285.683228 499.124664,286.150421 499.362823,286.617645 
	C491.164154,297.550598 482.965515,308.483582 474.476776,319.627045 
z"/>
<path fill="#FFFDF9" opacity="1.000000" stroke="none" 
	d="
M540.264954,300.461060 
	C540.189087,301.698608 540.071838,302.474274 539.866882,303.635437 
	C539.534363,303.419891 539.074280,302.818237 539.075867,302.217834 
	C539.126465,283.706726 539.222229,265.195801 539.536499,246.339935 
	C539.857849,248.398117 539.953735,250.801208 540.171021,253.640259 
	C540.269348,269.383881 540.246460,284.691528 540.264954,300.461060 
z"/>
<path fill="#FFFBF1" opacity="1.000000" stroke="none" 
	d="
M443.384857,234.641876 
	C443.093048,224.273117 443.060760,213.585785 443.138977,202.440277 
	C443.498444,208.010391 443.866608,214.036850 443.958252,220.067535 
	C444.030426,224.816757 443.761719,229.571182 443.384857,234.641876 
z"/>
<path fill="#144D2B" opacity="1.000000" stroke="none" 
	d="
M503.451599,235.104553 
	C503.700806,235.161636 503.777679,235.309647 503.862305,235.707581 
	C503.870087,235.957535 503.434814,235.998474 503.221069,235.954407 
	C503.007355,235.637558 503.098022,235.399277 503.451599,235.104553 
z"/>
<path fill="#FFFDF9" opacity="1.000000" stroke="none" 
	d="
M230.357605,173.504181 
	C230.212585,173.197968 230.414536,173.110779 230.881760,172.827271 
	C259.801422,172.656693 288.455811,172.682434 317.556885,172.862503 
	C316.772430,173.344391 315.541748,173.955627 314.309998,173.957840 
	C286.929138,174.006958 259.548126,173.990219 232.167175,173.972717 
	C231.679596,173.972397 231.192093,173.809982 230.357605,173.504181 
z"/>
<path fill="#6E7A6C" opacity="1.000000" stroke="none" 
	d="
M172.388214,388.225067 
	C172.741470,395.009216 172.964279,402.148926 172.977722,409.289001 
	C173.011581,427.266571 172.951035,445.244324 172.771820,463.676819 
	C172.411682,463.349152 172.029648,462.566498 172.030334,461.784210 
	C172.051392,437.383057 172.109787,412.981903 172.388214,388.225067 
z"/>
<path fill="#6E7A6C" opacity="1.000000" stroke="none" 
	d="
M172.387665,366.224426 
	C172.718552,371.654297 172.823074,377.438843 172.770630,383.677612 
	C172.462891,378.280914 172.312088,372.430023 172.387665,366.224426 
z"/>
<path fill="#6E7A6C" opacity="1.000000" stroke="none" 
	d="
M172.386139,313.220673 
	C172.716507,317.321899 172.821808,321.774719 172.770798,326.679657 
	C172.463348,322.611938 172.312210,318.092102 172.386139,313.220673 
z"/>
<path fill="#6E7A6C" opacity="1.000000" stroke="none" 
	d="
M172.388947,292.218689 
	C172.718094,295.989746 172.822327,300.109924 172.769257,304.680969 
	C172.462616,300.943817 172.313324,296.755829 172.388947,292.218689 
z"/>
<path fill="#6E7A6C" opacity="1.000000" stroke="none" 
	d="
M172.393402,333.211426 
	C172.721100,336.324982 172.825119,339.780365 172.773193,343.683533 
	C172.468063,340.605316 172.318893,337.079285 172.393402,333.211426 
z"/>
<path fill="#6E7A6C" opacity="1.000000" stroke="none" 
	d="
M172.394196,281.189087 
	C172.719055,283.331207 172.822952,285.792969 172.770660,288.693115 
	C172.467392,286.590576 172.320312,284.049683 172.394196,281.189087 
z"/>
<path fill="#6E7A6C" opacity="1.000000" stroke="none" 
	d="
M172.394287,350.176270 
	C172.721771,352.002380 172.824646,354.132172 172.770264,356.695312 
	C172.465240,354.912415 172.317459,352.696167 172.394287,350.176270 
z"/>
<path fill="#6E7A6C" opacity="1.000000" stroke="none" 
	d="
M172.393127,474.162537 
	C172.715714,475.671448 172.820450,477.473785 172.768463,479.704071 
	C172.466248,478.239990 172.320755,476.347961 172.393127,474.162537 
z"/>
<path fill="#144E2C" opacity="1.000000" stroke="none" 
	d="
M200.003754,329.000000 
	C200.004456,301.848846 200.099274,275.197052 199.909531,248.547241 
	C199.878708,244.218307 200.951233,242.882141 205.447113,242.898438 
	C251.419739,243.065216 297.393494,243.075745 343.365967,242.888046 
	C348.160614,242.868469 349.095276,244.445709 349.088867,248.852600 
	C348.971161,329.971863 348.967560,411.091370 349.093292,492.210571 
	C349.100281,496.709747 348.012329,498.141571 343.311279,498.123474 
	C297.505310,497.947021 251.698059,497.941101 205.892151,498.127625 
	C200.942642,498.147766 199.889618,496.573120 199.903091,491.904816 
	C200.059128,437.770203 200.003036,383.635040 200.003754,329.000000 
M329.012634,390.585510 
	C329.004974,390.412903 328.997345,390.240295 328.414276,389.460419 
	C327.607605,389.308594 326.801025,389.024506 325.994293,389.023926 
	C292.033508,388.999847 258.072723,388.987030 224.112061,389.050781 
	C222.758942,389.053314 221.407242,389.812988 220.096634,390.707001 
	C220.096634,390.707001 220.203415,391.185486 220.124847,392.087677 
	C220.113495,396.613129 220.102127,401.138550 220.560013,406.360840 
	C221.679092,406.569702 222.797989,406.959900 223.917282,406.960999 
	C257.576172,406.994781 291.235107,407.004242 324.893890,406.939789 
	C326.245178,406.937225 327.595062,406.176727 329.044525,404.872742 
	C329.001129,400.574066 328.957733,396.275360 329.049988,391.542175 
	C329.049988,391.542175 328.944092,391.099304 329.012634,390.585510 
M223.543915,296.072906 
	C222.777435,296.162781 222.010956,296.252655 220.536285,296.425598 
	C221.521866,296.796204 221.763687,296.966705 222.005615,296.966827 
	C256.360291,296.983887 290.715027,297.004822 325.069550,296.930969 
	C326.361084,296.928192 327.650665,296.000427 328.722931,295.270508 
	C328.722931,295.270508 328.638550,294.962494 329.008270,294.104156 
	C329.009796,289.717346 329.011292,285.330536 328.758331,280.183685 
	C327.584229,279.790222 326.410797,279.055145 325.235962,279.053009 
	C291.446014,278.990875 257.655823,278.979340 223.866104,279.089905 
	C222.587524,279.094055 221.313202,280.395538 220.109238,282.005188 
	C220.401398,286.351318 220.693558,290.697449 221.549210,295.434967 
	C222.438202,295.572784 223.327209,295.710602 223.543915,296.072906 
M220.551147,461.338470 
	C221.998474,461.560150 223.445618,461.973755 224.893173,461.975311 
	C258.056519,462.010651 291.219910,462.016846 324.383179,461.949493 
	C325.907990,461.946381 327.431305,461.207153 329.012146,459.905151 
	C328.678711,455.316010 328.345276,450.726837 327.086090,445.971313 
	C291.730377,446.028534 256.374664,446.085754 220.494812,446.111359 
	C220.425003,446.412476 220.355179,446.713623 220.159027,447.928192 
	C220.234711,451.625854 220.310379,455.323547 220.229782,459.551941 
	C220.181091,459.912781 220.132401,460.273590 220.551147,461.338470 
M220.522034,351.246399 
	C221.619308,351.494568 222.716354,351.958313 223.813904,351.959564 
	C257.517334,351.997864 291.220825,352.005066 324.924164,351.938751 
	C326.267059,351.936096 327.608459,351.168243 329.045898,349.862396 
	C329.016632,345.124084 328.987366,340.385773 328.540100,334.873749 
	C327.461212,334.586578 326.382690,334.049896 325.303406,334.048462 
	C291.604919,334.003937 257.906281,333.990295 224.207993,334.087555 
	C222.830002,334.091522 221.455261,335.214081 220.096405,336.643250 
	C220.093781,341.264801 220.091141,345.886353 220.522034,351.246399 
M325.709595,444.014954 
	C290.887909,444.014954 256.066254,444.014954 221.244568,444.014954 
	C221.245621,444.249756 221.246658,444.484558 221.247696,444.719360 
	C256.754639,444.719360 292.261566,444.719360 329.080170,444.719360 
	C327.357422,444.255249 326.920929,444.137665 325.709595,444.014954 
z"/>
<path fill="#EEE9DB" opacity="1.000000" stroke="none" 
	d="
M328.958099,335.647461 
	C328.987366,340.385773 329.016632,345.124084 328.532776,350.327454 
	C299.698395,350.788055 271.377075,350.802124 243.055817,350.766846 
	C235.399948,350.757294 227.744278,350.598297 220.088501,350.507904 
	C220.091141,345.886353 220.093781,341.264801 220.551636,336.180054 
	C256.990631,335.693726 292.974365,335.670593 328.958099,335.647461 
z"/>
<path fill="#EDE7D9" opacity="1.000000" stroke="none" 
	d="
M220.090759,405.664001 
	C220.102127,401.138550 220.113495,396.613129 220.373322,391.643402 
	C220.621796,391.199127 221.036469,391.257080 221.374176,391.489227 
	C222.864807,391.815430 224.017715,391.991425 225.170670,391.991608 
	C259.751892,391.997314 294.333130,391.985626 328.914337,391.976685 
	C328.957733,396.275360 329.001129,400.574066 328.530701,405.348694 
	C292.041534,405.771088 256.066162,405.717529 220.090759,405.664001 
z"/>
<path fill="#F2EBDC" opacity="1.000000" stroke="none" 
	d="
M221.018936,446.142975 
	C256.374664,446.085754 291.730377,446.028534 327.549500,446.510834 
	C328.012756,448.876923 328.014709,450.703461 328.012177,452.530029 
	C328.003174,459.000031 328.002563,459.005249 321.510620,459.006500 
	C287.802429,459.013000 254.094238,459.016602 220.386047,459.021210 
	C220.310379,455.323547 220.234711,451.625854 220.399200,447.380554 
	C220.834061,446.640442 220.960587,446.410461 221.018936,446.142975 
z"/>
<path fill="#F1EBDC" opacity="1.000000" stroke="none" 
	d="
M220.985718,295.043579 
	C220.693558,290.697449 220.401398,286.351318 220.322784,281.489960 
	C220.700882,281.021881 220.865402,281.069000 221.348022,281.378479 
	C223.480957,281.760529 225.295700,281.983215 227.110611,281.984558 
	C256.751251,282.006256 286.391876,282.000183 316.032532,281.999908 
	C328.034821,281.999786 328.034821,281.999268 327.537781,294.018555 
	C293.601471,294.013641 260.134216,293.995422 226.667084,294.054901 
	C224.772705,294.058258 222.879486,294.699310 220.985718,295.043579 
z"/>
<path fill="#FFFBF1" opacity="1.000000" stroke="none" 
	d="
M220.307922,459.286560 
	C254.094238,459.016602 287.802429,459.013000 321.510620,459.006500 
	C328.002563,459.005249 328.003174,459.000031 328.012177,452.530029 
	C328.014709,450.703461 328.012756,448.876923 328.012390,446.594025 
	C328.345276,450.726837 328.678711,455.316010 328.518921,460.388550 
	C304.367523,460.875763 280.709320,460.907410 257.051178,460.872131 
	C244.728592,460.853760 232.406189,460.717438 220.083710,460.634430 
	C220.132401,460.273590 220.181091,459.912781 220.307922,459.286560 
z"/>
<path fill="#053C14" opacity="1.000000" stroke="none" 
	d="
M221.029922,281.116119 
	C220.865402,281.069000 220.700882,281.021881 220.286621,281.033600 
	C221.313202,280.395538 222.587524,279.094055 223.866104,279.089905 
	C257.655823,278.979340 291.446014,278.990875 325.235962,279.053009 
	C326.410797,279.055145 327.584229,279.790222 328.418396,280.514709 
	C302.844208,280.846283 277.609924,280.821289 252.375732,280.859497 
	C241.927032,280.875336 231.478516,281.026489 221.029922,281.116119 
z"/>
<path fill="#FFFDF9" opacity="1.000000" stroke="none" 
	d="
M221.267456,295.239258 
	C222.879486,294.699310 224.772705,294.058258 226.667084,294.054901 
	C260.134216,293.995422 293.601471,294.013641 327.602844,294.200012 
	C328.250519,294.624023 328.417725,294.816528 328.638550,294.962494 
	C328.638550,294.962494 328.722931,295.270508 328.367004,295.431702 
	C314.202271,295.604553 300.393402,295.595978 286.584686,295.632660 
	C265.795166,295.687927 245.005692,295.774872 224.216202,295.848389 
	C223.327209,295.710602 222.438202,295.572784 221.267456,295.239258 
z"/>
<path fill="#FFFBF1" opacity="1.000000" stroke="none" 
	d="
M328.823425,294.533325 
	C328.417725,294.816528 328.250519,294.624023 328.071899,294.203522 
	C328.034821,281.999268 328.034821,281.999786 316.032532,281.999908 
	C286.391876,282.000183 256.751251,282.006256 227.110611,281.984558 
	C225.295700,281.983215 223.480957,281.760529 221.348022,281.378479 
	C231.478516,281.026489 241.927032,280.875336 252.375732,280.859497 
	C277.609924,280.821289 302.844208,280.846283 328.545593,280.894745 
	C329.011292,285.330536 329.009796,289.717346 328.823425,294.533325 
z"/>
<path fill="#00340F" opacity="1.000000" stroke="none" 
	d="
M220.054871,390.219879 
	C221.407242,389.812988 222.758942,389.053314 224.112061,389.050781 
	C258.072723,388.987030 292.033508,388.999847 325.994293,389.023926 
	C326.801025,389.024506 327.607605,389.308594 328.235657,389.737335 
	C322.320221,390.205261 316.583344,390.396271 310.455353,390.605347 
	C308.759308,390.610382 307.454376,390.597382 305.840881,390.364685 
	C303.304565,390.291077 301.076874,390.437256 298.566559,390.601227 
	C297.906738,390.606873 297.529510,390.594727 296.791718,390.362579 
	C287.985840,390.094086 279.539825,389.958038 271.095459,390.025604 
	C264.678131,390.076904 258.262878,390.387085 251.477509,390.600647 
	C250.122940,390.607208 249.137558,390.595154 247.791260,390.363770 
	C238.305191,390.169556 229.180038,390.194733 220.054871,390.219879 
z"/>
<path fill="#0A2912" opacity="1.000000" stroke="none" 
	d="
M220.305267,350.877136 
	C227.744278,350.598297 235.399948,350.757294 243.055817,350.766846 
	C271.377075,350.802124 299.698395,350.788055 328.485107,350.774750 
	C327.608459,351.168243 326.267059,351.936096 324.924164,351.938751 
	C291.220825,352.005066 257.517334,351.997864 223.813904,351.959564 
	C222.716354,351.958313 221.619308,351.494568 220.305267,350.877136 
z"/>
<path fill="#002E09" opacity="1.000000" stroke="none" 
	d="
M328.749084,335.260620 
	C292.974365,335.670593 256.990631,335.693726 220.542938,335.766174 
	C221.455261,335.214081 222.830002,334.091522 224.207993,334.087555 
	C257.906281,333.990295 291.604919,334.003937 325.303406,334.048462 
	C326.382690,334.049896 327.461212,334.586578 328.749084,335.260620 
z"/>
<path fill="#0A2912" opacity="1.000000" stroke="none" 
	d="
M220.325394,406.012421 
	C256.066162,405.717529 292.041534,405.771088 328.481262,405.796997 
	C327.595062,406.176727 326.245178,406.937225 324.893890,406.939789 
	C291.235107,407.004242 257.576172,406.994781 223.917282,406.960999 
	C222.797989,406.959900 221.679092,406.569702 220.325394,406.012421 
z"/>
<path fill="#002E09" opacity="1.000000" stroke="none" 
	d="
M223.880066,295.960632 
	C245.005692,295.774872 265.795166,295.687927 286.584686,295.632660 
	C300.393402,295.595978 314.202271,295.604553 328.476105,295.548279 
	C327.650665,296.000427 326.361084,296.928192 325.069550,296.930969 
	C290.715027,297.004822 256.360291,296.983887 222.005615,296.966827 
	C221.763687,296.966705 221.521866,296.796204 220.536285,296.425598 
	C222.010956,296.252655 222.777435,296.162781 223.880066,295.960632 
z"/>
<path fill="#053C14" opacity="1.000000" stroke="none" 
	d="
M326.097015,444.017517 
	C326.920929,444.137665 327.357422,444.255249 329.080170,444.719360 
	C292.261566,444.719360 256.754639,444.719360 221.247696,444.719360 
	C221.246658,444.484558 221.245621,444.249756 221.244568,444.014954 
	C256.066254,444.014954 290.887909,444.014954 326.097015,444.017517 
z"/>
<path fill="#002E09" opacity="1.000000" stroke="none" 
	d="
M220.317429,460.986450 
	C232.406189,460.717438 244.728592,460.853760 257.051178,460.872131 
	C280.709320,460.907410 304.367523,460.875763 328.490540,460.841339 
	C327.431305,461.207153 325.907990,461.946381 324.383179,461.949493 
	C291.219910,462.016846 258.056519,462.010651 224.893173,461.975311 
	C223.445618,461.973755 221.998474,461.560150 220.317429,460.986450 
z"/>
<path fill="#FFFFFD" opacity="1.000000" stroke="none" 
	d="
M306.149475,390.584412 
	C307.454376,390.597382 308.759308,390.610382 310.908020,390.771088 
	C317.482605,390.978943 323.213348,391.039124 328.944092,391.099304 
	C328.944092,391.099304 329.049988,391.542175 328.982178,391.759430 
	C294.333130,391.985626 259.751892,391.997314 225.170670,391.991608 
	C224.017715,391.991425 222.864807,391.815430 221.830658,391.383789 
	C230.683685,390.891815 239.417923,390.737457 248.152161,390.583130 
	C249.137558,390.595154 250.122940,390.607208 251.930695,390.767242 
	C267.552826,390.804352 282.352570,390.693481 297.152313,390.582581 
	C297.529510,390.594727 297.906738,390.606873 299.000336,390.768250 
	C301.860992,390.806488 304.005219,390.695435 306.149475,390.584412 
z"/>
<path fill="#768073" opacity="1.000000" stroke="none" 
	d="
M247.791260,390.363770 
	C239.417923,390.737457 230.683685,390.891815 221.492950,391.151611 
	C221.036469,391.257080 220.621796,391.199127 220.412598,391.192322 
	C220.203415,391.185486 220.096634,390.707001 220.075745,390.463440 
	C229.180038,390.194733 238.305191,390.169556 247.791260,390.363770 
z"/>
<path fill="#768073" opacity="1.000000" stroke="none" 
	d="
M328.978363,390.842407 
	C323.213348,391.039124 317.482605,390.978943 311.299194,390.753052 
	C316.583344,390.396271 322.320221,390.205261 328.523376,390.040955 
	C328.997345,390.240295 329.004974,390.412903 328.978363,390.842407 
z"/>
<path fill="#D0CEC6" opacity="1.000000" stroke="none" 
	d="
M220.756866,446.127167 
	C220.960587,446.410461 220.834061,446.640442 220.462372,446.923828 
	C220.355179,446.713623 220.425003,446.412476 220.756866,446.127167 
z"/>
<path fill="#768073" opacity="1.000000" stroke="none" 
	d="
M296.791718,390.362579 
	C282.352570,390.693481 267.552826,390.804352 252.299866,390.748657 
	C258.262878,390.387085 264.678131,390.076904 271.095459,390.025604 
	C279.539825,389.958038 287.985840,390.094086 296.791718,390.362579 
z"/>
<path fill="#768073" opacity="1.000000" stroke="none" 
	d="
M305.840881,390.364685 
	C304.005219,390.695435 301.860992,390.806488 299.282959,390.750488 
	C301.076874,390.437256 303.304565,390.291077 305.840881,390.364685 
z"/>
</svg>