<?xml version="1.0" encoding="utf-8" ?>
<svg baseProfile="full" height="100px" version="1.1" viewBox="0 0 100 100" width="100px" xmlns="http://www.w3.org/2000/svg" xmlns:ev="http://www.w3.org/2001/xml-events" xmlns:xlink="http://www.w3.org/1999/xlink"><defs /><circle cx="50" cy="50" fill="#254D39" r="50" /><rect fill="#EEE9E0" height="38" rx="2" width="22" x="30" y="30" /><rect fill="#EEE9E0" height="6" rx="1" width="10" x="36" y="24" /><rect fill="#EEE9E0" height="2" width="18" x="32" y="34" /><rect fill="#EEE9E0" height="2" width="18" x="32" y="40" /><rect fill="#EEE9E0" height="2" width="18" x="32" y="46" /><rect fill="#EEE9E0" height="2" width="18" x="32" y="52" /><rect fill="#EEE9E0" height="12" rx="1.5" width="8" x="64" y="48" /><rect fill="#EEE9E0" height="3" width="1.5" x="65" y="45" /><rect fill="#EEE9E0" height="3" width="1.5" x="69" y="45" /><polygon fill="#254D39" points="66,52 68,54 67.2,54 69.5,57 66.5,55 67.8,55" /><path d="M64,60 C58,66 48,67 43,66" fill="none" stroke="#EEE9E0" stroke-width="1.5" /></svg>