<?xml version="1.0" encoding="utf-8" ?>
<svg baseProfile="full" height="100px" version="1.1" viewBox="0 0 100 100" width="100px" xmlns="http://www.w3.org/2000/svg" xmlns:ev="http://www.w3.org/2001/xml-events" xmlns:xlink="http://www.w3.org/1999/xlink"><defs /><circle cx="50" cy="50" fill="#254D39" r="50" /><rect fill="#EEE9E0" height="40" rx="2" width="24" x="28" y="28" /><rect fill="#EEE9E0" height="7" rx="1" width="12" x="34" y="21" /><rect fill="#EEE9E0" height="2" width="20" x="30" y="34" /><rect fill="#EEE9E0" height="2" width="20" x="30" y="40" /><rect fill="#EEE9E0" height="2" width="20" x="30" y="46" /><rect fill="#EEE9E0" height="2" width="20" x="30" y="52" /><rect fill="#EEE9E0" height="13" rx="2" width="10" x="60" y="52" /><rect fill="#EEE9E0" height="3" width="1.5" x="61.5" y="49" /><rect fill="#EEE9E0" height="3" width="1.5" x="66" y="49" /><polygon fill="#254D39" points="63.5,56 66,58 64.5,58 67.5,61 63.8,59 65,59" /><path d="M60,61 C56,66 46,66 43,64" fill="none" stroke="#EEE9E0" stroke-width="1.5" /></svg>